# Created with Anim8or 0.95
# Object "box00":
# ComRec:
g mesh01
mtlib crateSteel01.mtl
# No. points 48:
v -0.50000 0 -0.50000
v -0.50000 0 0.50000
v -0.50000 1 -0.50000
v -0.50000 1 0.50000
v 0.50000 0 -0.50000
v 0.50000 0 0.50000
v 0.50000 1 -0.50000
v 0.50000 1 0.50000
v -0.35000 0.15000 0.50000
v -0.35000 0.85000 0.50000
v 0.35000 0.85000 0.50000
v 0.35000 0.15000 0.50000
v -0.35000 0.15000 0.40000
v -0.35000 0.85000 0.40000
v 0.35000 0.85000 0.40000
v 0.35000 0.15000 0.40000
v -0.50000 0.15000 -0.35000
v -0.50000 0.85000 -0.35000
v -0.50000 0.85000 0.35000
v -0.50000 0.15000 0.35000
v -0.40000 0.15000 -0.35000
v -0.40000 0.85000 -0.35000
v -0.40000 0.85000 0.35000
v -0.40000 0.15000 0.35000
v -0.35000 0.15000 -0.50000
v 0.35000 0.15000 -0.50000
v 0.35000 0.85000 -0.50000
v -0.35000 0.85000 -0.50000
v -0.35000 0.15000 -0.40000
v 0.35000 0.15000 -0.40000
v 0.35000 0.85000 -0.40000
v -0.35000 0.85000 -0.40000
v 0.50000 0.15000 -0.35000
v 0.50000 0.15000 0.35000
v 0.50000 0.85000 0.35000
v 0.50000 0.85000 -0.35000
v 0.40000 0.15000 -0.35000
v 0.40000 0.15000 0.35000
v 0.40000 0.85000 0.35000
v 0.40000 0.85000 -0.35000
v -0.35000 1 -0.35000
v 0.35000 1 -0.35000
v 0.35000 1 0.35000
v -0.35000 1 0.35000
v -0.35000 0.90000 -0.35000
v 0.35000 0.90000 -0.35000
v 0.35000 0.90000 0.35000
v -0.35000 0.90000 0.35000

# No. normals 190:
vn 0 -1 0
vn 0 0 1
vn 0 0 1
vn 0 0 1
vn 0 0 1
vn 0 1 0
vn 1 0 0
vn 0 -1 0
vn -1 0 0
vn 0 0 1
vn -1 0 0
vn -1 0 0
vn -1 0 0
vn -1 0 0
vn 0 1 0
vn 0 0 1
vn 0 -1 0
vn 0 0 -1
vn -1 0 0
vn 0 0 -1
vn 0 0 -1
vn 0 0 -1
vn 0 0 -1
vn 1 0 0
vn 0 1 0
vn -1 0 0
vn 0 -1 0
vn 0 0 -1
vn 1 0 0
vn 1 0 0
vn 1 0 0
vn 1 0 0
vn 0 0 1
vn 0 1 0
vn 0 0 -1
vn 0 -1 0
vn 1 0 0
vn 0 1 0
vn 0 1 0
vn 0 1 0
vn 0 1 0
vn 1 0 0
vn 0 0 1
vn -1 0 0
vn 0 0 -1
vn 0 1 0
vn 0 -1 0
vn 0 0 -1
vn -1 0 0
vn 0 -1 0
vn -1 0 0
vn 0 0 1
vn -1 0 0
vn 0 1 0
vn 0 0 -1
vn 0 0 1
vn 0 1 0
vn -1 0 0
vn 0 -1 0
vn 1 0 0
vn 0 0 -1
vn 0 -1 0
vn 1 0 0
vn 0 0 1
vn 0 0 -1
vn 0 1 0
vn 1 0 0
vn 0 0 1
vn 0 1 0
vn 1 0 0
vn 0 0 1
vn 1 0 0
vn 0 1 0
vn 0 0 1
vn 0 -1 0
vn 1 0 0
vn 0 0 1
vn -1 0 0
vn 0 -1 0
vn 0 0 1
vn -1 0 0
vn 0 1 0
vn 0 1 0
vn 0 0 1
vn 1 0 0
vn 1 0 0
vn 0 0 1
vn 0 -1 0
vn 0 -1 0
vn 0 0 1
vn -1 0 0
vn 0 1 0
vn 0 0 1
vn -1 0 0
vn -1 0 0
vn 0 0 1
vn 0 1 0
vn -1 0 0
vn 0 -1 0
vn 0 0 1
vn -1 0 0
vn 0 0 -1
vn 0 -1 0
vn -1 0 0
vn 0 0 -1
vn 0 1 0
vn 0 1 0
vn -1 0 0
vn 0 0 1
vn 0 0 1
vn -1 0 0
vn 0 -1 0
vn 0 -1 0
vn -1 0 0
vn 0 0 -1
vn 0 1 0
vn -1 0 0
vn 0 0 -1
vn 0 0 -1
vn 0 1 0
vn 1 0 0
vn 0 0 -1
vn -1 0 0
vn 0 1 0
vn 0 0 -1
vn 0 -1 0
vn -1 0 0
vn 0 0 -1
vn 0 -1 0
vn 1 0 0
vn 1 0 0
vn 0 0 -1
vn 0 1 0
vn 0 1 0
vn 0 0 -1
vn -1 0 0
vn -1 0 0
vn 0 0 -1
vn 0 -1 0
vn 1 0 0
vn 0 0 -1
vn 0 -1 0
vn 1 0 0
vn 0 1 0
vn 0 0 1
vn 1 0 0
vn 0 0 -1
vn 0 1 0
vn 1 0 0
vn 0 -1 0
vn 0 0 -1
vn 1 0 0
vn 0 -1 0
vn 0 0 1
vn 0 0 1
vn 1 0 0
vn 0 1 0
vn 0 1 0
vn 1 0 0
vn 0 0 -1
vn 0 0 -1
vn 1 0 0
vn 0 -1 0
vn 0 0 1
vn 1 0 0
vn 0 -1 0
vn 0 1 0
vn 0 0 1
vn 1 0 0
vn 0 1 0
vn -1 0 0
vn 0 0 1
vn 0 1 0
vn 0 0 -1
vn -1 0 0
vn 0 1 0
vn 0 0 -1
vn 1 0 0
vn 1 0 0
vn 0 1 0
vn 0 0 1
vn 0 0 1
vn 0 1 0
vn -1 0 0
vn -1 0 0
vn 0 1 0
vn 0 0 -1
vn 1 0 0
vn 0 1 0
vn 0 0 -1

# No. texture coordinates 184:
vt 0.66667 0.16667
vt 0.66667 0.50000
vt 0.33333 0.50000
vt 0.33333 0.16667
vt 0.95000 0.55000
vt 0.71667 0.55000
vt 0.66667 0.50000
vt 1 0.50000
vt 0.71667 0.55000
vt 0.71667 0.78333
vt 0.66667 0.83333
vt 0.66667 0.50000
vt 0.71667 0.78333
vt 0.95000 0.78333
vt 1 0.83333
vt 0.66667 0.83333
vt 0.95000 0.78333
vt 0.95000 0.55000
vt 1 0.50000
vt 1 0.83333
vt 0.61667 0.53333
vt 0.38333 0.53333
vt 0.38333 0.50000
vt 0.61667 0.50000
vt 0.03333 0.21667
vt 0.03333 0.45000
vt 0 0.45000
vt 0 0.21667
vt 0.38333 0.46667
vt 0.61667 0.46667
vt 0.61667 0.50000
vt 0.38333 0.50000
vt 0.30000 0.78333
vt 0.30000 0.55000
vt 0.33333 0.55000
vt 0.33333 0.78333
vt 0.95000 0.55000
vt 0.95000 0.78333
vt 0.71667 0.78333
vt 0.71667 0.55000
vt 0.28333 0.55000
vt 0.05000 0.55000
vt 0 0.50000
vt 0.33333 0.50000
vt 0.05000 0.55000
vt 0.05000 0.78333
vt 0 0.83333
vt 0 0.50000
vt 0.05000 0.78333
vt 0.28333 0.78333
vt 0.33333 0.83333
vt 0 0.83333
vt 0.28333 0.78333
vt 0.28333 0.55000
vt 0.33333 0.50000
vt 0.33333 0.83333
vt 0.36667 0.55000
vt 0.36667 0.78333
vt 0.33333 0.78333
vt 0.33333 0.55000
vt 0.70000 0.55000
vt 0.70000 0.78333
vt 0.66667 0.78333
vt 0.66667 0.55000
vt 0.36667 0.21667
vt 0.36667 0.45000
vt 0.33333 0.45000
vt 0.33333 0.21667
vt 0.96667 0.45000
vt 0.96667 0.21667
vt 1 0.21667
vt 1 0.45000
vt 0.28333 0.55000
vt 0.28333 0.78333
vt 0.05000 0.78333
vt 0.05000 0.55000
vt 0.95000 0.45000
vt 0.95000 0.21667
vt 1 0.16667
vt 1 0.50000
vt 0.95000 0.21667
vt 0.71667 0.21667
vt 0.66667 0.16667
vt 1 0.16667
vt 0.71667 0.21667
vt 0.71667 0.45000
vt 0.66667 0.50000
vt 0.66667 0.16667
vt 0.71667 0.45000
vt 0.95000 0.45000
vt 1 0.50000
vt 0.66667 0.50000
vt 0.30000 0.45000
vt 0.30000 0.21667
vt 0.33333 0.21667
vt 0.33333 0.45000
vt 0.38333 0.80000
vt 0.61667 0.80000
vt 0.61667 0.83333
vt 0.38333 0.83333
vt 0.03333 0.55000
vt 0.03333 0.78333
vt 0 0.78333
vt 0 0.55000
vt 0.61667 0.20000
vt 0.38333 0.20000
vt 0.38333 0.16667
vt 0.61667 0.16667
vt 0.95000 0.45000
vt 0.71667 0.45000
vt 0.71667 0.21667
vt 0.95000 0.21667
vt 0.28333 0.45000
vt 0.28333 0.21667
vt 0.33333 0.16667
vt 0.33333 0.50000
vt 0.28333 0.21667
vt 0.05000 0.21667
vt 0 0.16667
vt 0.33333 0.16667
vt 0.05000 0.21667
vt 0.05000 0.45000
vt 0 0.50000
vt 0 0.16667
vt 0.05000 0.45000
vt 0.28333 0.45000
vt 0.33333 0.50000
vt 0 0.50000
vt 0.96667 0.78333
vt 0.96667 0.55000
vt 1 0.55000
vt 1 0.78333
vt 0.63333 0.78333
vt 0.63333 0.55000
vt 0.66667 0.55000
vt 0.66667 0.78333
vt 0.70000 0.21667
vt 0.70000 0.45000
vt 0.66667 0.45000
vt 0.66667 0.21667
vt 0.63333 0.45000
vt 0.63333 0.21667
vt 0.66667 0.21667
vt 0.66667 0.45000
vt 0.28333 0.45000
vt 0.05000 0.45000
vt 0.05000 0.21667
vt 0.28333 0.21667
vt 0.38333 0.55000
vt 0.38333 0.78333
vt 0.33333 0.83333
vt 0.33333 0.50000
vt 0.38333 0.78333
vt 0.61667 0.78333
vt 0.66667 0.83333
vt 0.33333 0.83333
vt 0.61667 0.78333
vt 0.61667 0.55000
vt 0.66667 0.50000
vt 0.66667 0.83333
vt 0.61667 0.55000
vt 0.38333 0.55000
vt 0.33333 0.50000
vt 0.66667 0.50000
vt 0.05000 0.46667
vt 0.28333 0.46667
vt 0.28333 0.50000
vt 0.05000 0.50000
vt 0.71667 0.80000
vt 0.95000 0.80000
vt 0.95000 0.83333
vt 0.71667 0.83333
vt 0.05000 0.80000
vt 0.28333 0.80000
vt 0.28333 0.83333
vt 0.05000 0.83333
vt 0.71667 0.46667
vt 0.95000 0.46667
vt 0.95000 0.50000
vt 0.71667 0.50000
vt 0.38333 0.55000
vt 0.61667 0.55000
vt 0.61667 0.78333
vt 0.38333 0.78333

# No. faces 46:
usemtl box01
f 5/1/59 6/2/62 2/3/50 1/4/47
f 12/5/80 9/6/71 2/7/52 6/8/64
f 9/9/71 10/10/74 4/11/56 2/12/52
f 10/13/74 11/14/77 8/15/68 4/16/56
f 11/17/77 12/18/80 6/19/64 8/20/68
f 16/21/92 13/22/83 9/23/73 12/24/82
f 13/25/85 14/26/86 10/27/76 9/28/72
f 14/29/88 15/30/89 11/31/79 10/32/75
f 15/33/91 16/34/94 12/35/81 11/36/78
f 16/37/93 15/38/90 14/39/87 13/40/84
f 20/41/104 17/42/95 1/43/49 2/44/51
f 17/45/95 18/46/98 3/47/53 1/48/49
f 18/49/98 19/50/101 4/51/58 3/52/53
f 19/53/101 20/54/104 2/55/51 4/56/58
f 24/57/116 21/58/107 17/59/97 20/60/106
f 21/61/109 22/62/110 18/63/100 17/64/96
f 22/65/112 23/66/113 19/67/103 18/68/99
f 23/69/115 24/70/118 20/71/105 19/72/102
f 24/73/117 23/74/114 22/75/111 21/76/108
f 28/77/128 25/78/119 1/79/48 3/80/55
f 25/81/119 26/82/122 5/83/61 1/84/48
f 26/85/122 27/86/125 7/87/65 5/88/61
f 27/89/125 28/90/128 3/91/55 7/92/65
f 32/93/140 29/94/131 25/95/121 28/96/130
f 29/97/133 30/98/134 26/99/124 25/100/120
f 30/101/136 31/102/137 27/103/127 26/104/123
f 31/105/139 32/106/142 28/107/129 27/108/126
f 32/109/141 31/110/138 30/111/135 29/112/132
f 36/113/152 33/114/143 5/115/60 7/116/67
f 33/117/143 34/118/146 6/119/63 5/120/60
f 34/121/146 35/122/149 8/123/70 6/124/63
f 35/125/149 36/126/152 7/127/67 8/128/70
f 40/129/164 37/130/155 33/131/145 36/132/154
f 37/133/157 38/134/158 34/135/148 33/136/144
f 38/137/160 39/138/161 35/139/151 34/140/147
f 39/141/163 40/142/166 36/143/153 35/144/150
f 40/145/165 39/146/162 38/147/159 37/148/156
f 44/149/176 41/150/167 3/151/54 4/152/57
f 41/153/167 42/154/170 7/155/66 3/156/54
f 42/157/170 43/158/173 8/159/69 7/160/66
f 43/161/173 44/162/176 4/163/57 8/164/69
f 48/165/188 45/166/179 41/167/169 44/168/178
f 45/169/181 46/170/182 42/171/172 41/172/168
f 46/173/184 47/174/185 43/175/175 42/176/171
f 47/177/187 48/178/190 44/179/177 43/180/174
f 48/181/189 47/182/186 46/183/183 45/184/180


