# Wavefront OBJ file generated by LithUnwrap
# num_vertices: 56
# num_vertex_normals: 56
# num_uvs: 200
# num_faces: 49
# num_groups: 1
mtlib wallIndustrial.mtl
v 0.456680 1.000000 -0.189160
v 0.189160 1.000000 -0.456680
v -0.189160 1.000000 -0.456680
v -0.456680 1.000000 -0.189160
v -0.456680 1.000000 0.189160
v -0.189160 1.000000 0.456680
v 0.189160 1.000000 0.456680
v 0.456680 1.000000 0.189160
v 0.456680 1.200000 -0.189160
v 0.189160 1.200000 -0.456680
v -0.189160 1.200000 -0.456680
v -0.456680 1.200000 -0.189160
v -0.456680 1.200000 0.189160
v -0.189160 1.200000 0.456680
v 0.189160 1.200000 0.456680
v 0.456680 1.200000 0.189160
v 0.380570 0.000000 -0.157630
v 0.157630 0.000000 -0.380570
v -0.157630 0.000000 -0.380570
v -0.380570 0.000000 -0.157630
v -0.380570 0.000000 0.157630
v -0.157630 0.000000 0.380570
v 0.157630 0.000000 0.380570
v 0.380570 0.000000 0.157630
v 0.157630 1.000000 -0.380570
v 0.380570 1.000000 -0.157630
v -0.157630 1.000000 -0.380570
v -0.380570 1.000000 -0.157630
v -0.380570 1.000000 0.157630
v -0.157630 1.000000 0.380570
v 0.157630 1.000000 0.380570
v 0.380570 1.000000 0.157630
v 0.319680 1.000000 -0.132410
v 0.319680 1.000000 0.132410
v 0.132410 1.000000 0.319680
v -0.132410 1.000000 0.319680
v -0.319680 1.000000 0.132410
v -0.319680 1.000000 -0.132410
v -0.132410 1.000000 -0.319680
v 0.132410 1.000000 -0.319680
v 0.388180 1.200000 -0.160790
v 0.160790 1.200000 -0.388180
v 0.388180 1.200000 0.160790
v 0.160790 1.200000 0.388180
v -0.160790 1.200000 0.388180
v -0.388180 1.200000 0.160790
v -0.388180 1.200000 -0.160790
v -0.160790 1.200000 -0.388180
v 0.353930 1.100000 -0.146600
v 0.146600 1.100000 -0.353930
v 0.353930 1.100000 0.146600
v 0.146600 1.100000 0.353930
v -0.146600 1.100000 0.353930
v -0.353930 1.100000 0.146600
v -0.353930 1.100000 -0.146600
v -0.146600 1.100000 -0.353930
# num_vertices: 56

vn 0.626943 -0.734510 -0.259688
vn 0.259688 -0.734510 -0.626943
vn -0.259688 -0.734510 -0.626943
vn -0.626943 -0.734510 -0.259688
vn -0.626943 -0.734510 0.259688
vn -0.259688 -0.734510 0.626943
vn 0.259688 -0.734510 0.626943
vn 0.626943 -0.734510 0.259688
vn 0.626943 0.734510 -0.259688
vn 0.259688 0.734510 -0.626943
vn -0.259688 0.734510 -0.626943
vn -0.626943 0.734510 -0.259688
vn -0.626943 0.734510 0.259688
vn -0.259688 0.734510 0.626943
vn 0.259688 0.734510 0.626943
vn 0.626943 0.734510 0.259688
vn 0.923880 0.000000 -0.382683
vn 0.382683 0.000000 -0.923880
vn -0.382683 0.000000 -0.923880
vn -0.923880 0.000000 -0.382683
vn -0.923880 0.000000 0.382683
vn -0.382683 0.000000 0.923880
vn 0.382683 0.000000 0.923880
vn 0.923880 0.000000 0.382683
vn 0.259688 -0.734510 -0.626943
vn 0.626943 -0.734510 -0.259688
vn -0.259688 -0.734510 -0.626943
vn -0.626943 -0.734510 -0.259688
vn -0.626943 -0.734510 0.259688
vn -0.259688 -0.734510 0.626943
vn 0.259688 -0.734510 0.626943
vn 0.626943 -0.734510 0.259688
vn -0.672227 0.685988 0.278444
vn -0.672227 0.685988 -0.278444
vn -0.278444 0.685988 -0.672227
vn 0.278444 0.685988 -0.672227
vn 0.672227 0.685988 -0.278444
vn 0.672227 0.685988 0.278444
vn 0.278444 0.685988 0.672227
vn -0.278444 0.685988 0.672227
vn -0.508982 0.834560 0.210826
vn -0.210826 0.834560 0.508982
vn -0.508982 0.834560 -0.210826
vn -0.210826 0.834560 -0.508982
vn 0.210826 0.834560 -0.508982
vn 0.508982 0.834560 -0.210826
vn 0.508982 0.834560 0.210826
vn 0.210826 0.834560 0.508982
vn -0.866266 0.347612 0.358817
vn -0.358817 0.347612 0.866266
vn -0.866266 0.347612 -0.358817
vn -0.358817 0.347612 -0.866266
vn 0.358817 0.347612 -0.866266
vn 0.866266 0.347612 -0.358817
vn 0.866266 0.347612 0.358817
vn 0.358817 0.347612 0.866266
# num_vertex_normals: 56

vt 0.000000 0.707100
vt 0.333330 0.707100
vt 0.333330 1.000000
vt 0.000000 1.000000
vt 0.000000 1.000000
vt 0.333330 1.000000
vt 0.333330 1.000000
vt 0.000000 1.000000
vt 0.000000 1.000000
vt 0.333330 1.000000
vt 0.333330 0.707100
vt 0.000000 0.707100
vt 0.000000 0.707100
vt 0.333330 0.707100
vt 0.333330 0.292900
vt 0.000000 0.292900
vt 0.000000 0.292900
vt 0.333330 0.292900
vt 0.333330 0.000000
vt 0.000000 0.000000
vt 0.000000 0.000000
vt 0.333330 0.000000
vt 0.333330 0.000000
vt 0.000000 0.000000
vt 0.000000 0.000000
vt 0.333330 0.000000
vt 0.333330 0.292900
vt 0.000000 0.292900
vt 0.000000 0.292900
vt 0.333330 0.292900
vt 0.333330 0.707100
vt 0.000000 0.707100
vt 0.333330 0.672580
vt 1.000000 0.672580
vt 1.000000 0.916670
vt 0.333330 0.916670
vt 0.333330 0.916670
vt 1.000000 0.916670
vt 1.000000 0.916670
vt 0.333330 0.916670
vt 0.333330 0.916670
vt 1.000000 0.916670
vt 1.000000 0.672580
vt 0.333330 0.672580
vt 0.333330 0.672580
vt 1.000000 0.672580
vt 1.000000 0.327420
vt 0.333330 0.327420
vt 0.333330 0.327420
vt 1.000000 0.327420
vt 1.000000 0.083330
vt 0.333330 0.083330
vt 0.333330 0.083330
vt 1.000000 0.083330
vt 1.000000 0.083330
vt 0.333330 0.083330
vt 0.333330 0.083330
vt 1.000000 0.083330
vt 1.000000 0.327420
vt 0.333330 0.327420
vt 0.333330 0.327420
vt 1.000000 0.327420
vt 1.000000 0.672580
vt 0.333330 0.672580
vt 0.333330 0.083330
vt 0.333330 0.327420
vt 0.333330 0.292900
vt 0.333330 0.000000
vt 0.333330 0.292900
vt 0.333330 0.327420
vt 0.333330 0.672580
vt 0.333330 0.707100
vt 0.333330 0.672580
vt 0.333330 0.916670
vt 0.333330 1.000000
vt 0.333330 0.707100
vt 0.333330 0.916670
vt 0.333330 0.916670
vt 0.333330 1.000000
vt 0.333330 1.000000
vt 0.333330 0.916670
vt 0.333330 0.672580
vt 0.333330 0.707100
vt 0.333330 1.000000
vt 0.333330 0.672580
vt 0.333330 0.327420
vt 0.333330 0.292900
vt 0.333330 0.707100
vt 0.333330 0.327420
vt 0.333330 0.083330
vt 0.333330 0.000000
vt 0.333330 0.292900
vt 0.333330 0.083330
vt 0.333330 0.083330
vt 0.333330 0.000000
vt 0.333330 0.000000
vt 0.333330 0.850000
vt 0.333330 0.850000
vt 0.333330 0.644970
vt 0.333330 0.355030
vt 0.333330 0.150000
vt 0.333330 0.150000
vt 0.333330 0.355030
vt 0.333330 0.644970
vt 0.000000 0.676040
vt 0.000000 0.707100
vt 0.000000 1.000000
vt 0.000000 0.925000
vt 0.000000 0.323960
vt 0.000000 0.292900
vt 0.000000 0.707100
vt 0.000000 0.676040
vt 0.000000 0.075000
vt 0.000000 0.000000
vt 0.000000 0.292900
vt 0.000000 0.323960
vt 0.000000 0.075000
vt 0.000000 0.000000
vt 0.000000 0.000000
vt 0.000000 0.075000
vt 0.000000 0.323960
vt 0.000000 0.292900
vt 0.000000 0.000000
vt 0.000000 0.075000
vt 0.000000 0.676040
vt 0.000000 0.707100
vt 0.000000 0.292900
vt 0.000000 0.323960
vt 0.000000 0.925000
vt 0.000000 1.000000
vt 0.000000 0.707100
vt 0.000000 0.676040
vt 0.000000 0.925000
vt 0.000000 1.000000
vt 0.000000 1.000000
vt 0.000000 0.925000
vt 0.166670 0.660510
vt 0.000000 0.676040
vt 0.000000 0.925000
vt 0.166670 0.887500
vt 0.166670 0.887500
vt 0.333330 0.850000
vt 0.333330 0.644970
vt 0.166670 0.660510
vt 0.166670 0.339490
vt 0.000000 0.323960
vt 0.000000 0.676040
vt 0.166670 0.660510
vt 0.166670 0.660510
vt 0.333330 0.644970
vt 0.333330 0.355030
vt 0.166670 0.339490
vt 0.166670 0.112500
vt 0.000000 0.075000
vt 0.000000 0.323960
vt 0.166670 0.339490
vt 0.166670 0.339490
vt 0.333330 0.355030
vt 0.333330 0.150000
vt 0.166670 0.112500
vt 0.166670 0.112500
vt 0.000000 0.075000
vt 0.000000 0.075000
vt 0.166670 0.112500
vt 0.166670 0.112500
vt 0.333330 0.150000
vt 0.333330 0.150000
vt 0.166670 0.112500
vt 0.166670 0.339490
vt 0.000000 0.323960
vt 0.000000 0.075000
vt 0.166670 0.112500
vt 0.166670 0.112500
vt 0.333330 0.150000
vt 0.333330 0.355030
vt 0.166670 0.339490
vt 0.166670 0.660510
vt 0.000000 0.676040
vt 0.000000 0.323960
vt 0.166670 0.339490
vt 0.166670 0.339490
vt 0.333330 0.355030
vt 0.333330 0.644970
vt 0.166670 0.660510
vt 0.166670 0.887500
vt 0.000000 0.925000
vt 0.000000 0.676040
vt 0.166670 0.660510
vt 0.166670 0.660510
vt 0.333330 0.644970
vt 0.333330 0.850000
vt 0.166670 0.887500
vt 0.166670 0.887500
vt 0.000000 0.925000
vt 0.000000 0.925000
vt 0.166670 0.887500
vt 0.166670 0.887500
vt 0.333330 0.850000
vt 0.333330 0.850000
vt 0.166670 0.887500
# num_uvs: 200

g mesh01
usemtl wall01
f 9/1/9 1/2/1 2/3/2 10/4/10 
f 10/5/10 2/6/2 3/7/3 11/8/11 
f 11/9/11 3/10/3 4/11/4 12/12/12 
f 12/13/12 4/14/4 5/15/5 13/16/13 
f 13/17/13 5/18/5 6/19/6 14/20/14 
f 14/21/14 6/22/6 7/23/7 15/24/15 
f 15/25/15 7/26/7 8/27/8 16/28/16 
f 16/29/16 8/30/8 1/31/1 9/32/9 
f 26/33/26 17/34/17 18/35/18 25/36/25 
f 25/37/25 18/38/18 19/39/19 27/40/27 
f 27/41/27 19/42/19 20/43/20 28/44/28 
f 28/45/28 20/46/20 21/47/21 29/48/29 
f 29/49/29 21/50/21 22/51/22 30/52/30 
f 30/53/30 22/54/22 23/55/23 31/56/31 
f 31/57/31 23/58/23 24/59/24 32/60/32 
f 32/61/32 24/62/24 17/63/17 26/64/26 
f 31/65/31 32/66/32 8/67/8 7/68/7 
f 8/69/8 32/70/32 26/71/26 1/72/1 
f 26/73/26 25/74/25 2/75/2 1/76/1 
f 25/77/25 27/78/27 3/79/3 2/80/2 
f 27/81/27 28/82/28 4/83/4 3/84/3 
f 28/85/28 29/86/29 5/87/5 4/88/4 
f 29/89/29 30/90/30 6/91/6 5/92/5 
f 30/93/30 31/94/31 7/95/7 6/96/6 
f 40/97/40 39/98/39 38/99/38 37/100/37 36/101/36 35/102/35 34/103/34 33/104/33 
f 41/105/41 9/106/9 10/107/10 42/108/42 
f 43/109/43 16/110/16 9/111/9 41/112/41 
f 44/113/44 15/114/15 16/115/16 43/116/43 
f 45/117/45 14/118/14 15/119/15 44/120/44 
f 46/121/46 13/122/13 14/123/14 45/124/45 
f 47/125/47 12/126/12 13/127/13 46/128/46 
f 48/129/48 11/130/11 12/131/12 47/132/47 
f 42/133/42 10/134/10 11/135/11 48/136/48 
f 49/137/49 41/138/41 42/139/42 50/140/50 
f 50/141/50 40/142/40 33/143/33 49/144/49 
f 51/145/51 43/146/43 41/147/41 49/148/49 
f 49/149/49 33/150/33 34/151/34 51/152/51 
f 52/153/52 44/154/44 43/155/43 51/156/51 
f 51/157/51 34/158/34 35/159/35 52/160/52 
f 53/161/53 45/162/45 44/163/44 52/164/52 
f 52/165/52 35/166/35 36/167/36 53/168/53 
f 54/169/54 46/170/46 45/171/45 53/172/53 
f 53/173/53 36/174/36 37/175/37 54/176/54 
f 55/177/55 47/178/47 46/179/46 54/180/54 
f 54/181/54 37/182/37 38/183/38 55/184/55 
f 56/185/56 48/186/48 47/187/47 55/188/55 
f 55/189/55 38/190/38 39/191/39 56/192/56 
f 50/193/50 42/194/42 48/195/48 56/196/56 
f 56/197/56 39/198/39 40/199/40 50/200/50 
# num_faces: 49

