# Wavefront OBJ file generated by LithUnwrap
# num_vertices: 34
# num_vertex_normals: 34
# num_uvs: 64
# num_faces: 16
# num_groups: 1
mtlib wallIndustrial.mtl
v -0.380570 1.157630 -0.380570
v -0.380570 0.842370 -0.380570
v -0.380570 1.157630 -0.380570
v -0.380570 0.842370 -0.380570
v -0.157630 1.380570 -0.500000
v -0.380570 1.157630 -0.500000
v -0.380570 0.842370 -0.500000
v -0.157630 0.619430 -0.500000
v 0.157630 0.619430 -0.500000
v 0.380570 0.842370 -0.500000
v 0.380570 1.157630 -0.500000
v 0.157630 1.380570 -0.500000
v -0.157630 1.380570 -0.157630
v -0.157630 0.619430 -0.157630
v 0.157630 0.619430 -0.157630
v 0.157630 1.380570 -0.157630
v 0.380570 0.842370 -0.380570
v 0.380570 1.157630 -0.380570
v -0.500000 1.380570 -0.157630
v -0.500000 1.157630 -0.380570
v -0.500000 0.842370 -0.380570
v -0.500000 0.619430 -0.157630
v -0.500000 0.619430 0.157630
v -0.500000 0.842370 0.380570
v -0.500000 1.157630 0.380570
v -0.500000 1.380570 0.157630
v 0.500000 1.380570 -0.157630
v 0.500000 1.157630 -0.380570
v 0.500000 0.842370 -0.380570
v 0.500000 0.619430 -0.157630
v 0.500000 0.619430 0.157630
v 0.500000 0.842370 0.380570
v 0.500000 1.157630 0.380570
v 0.500000 1.380570 0.157630
# num_vertices: 34

vn 0.000000 0.000000 0.000000
vn 0.000000 0.000000 0.000000
vn -0.923880 0.382683 0.000000
vn -0.923880 -0.382683 0.000000
vn -0.382684 0.923879 0.000000
vn -0.923880 0.382683 0.000000
vn -0.923880 -0.382683 0.000000
vn -0.382683 -0.923880 0.000000
vn 0.382683 -0.923880 0.000000
vn 0.923880 -0.382683 0.000000
vn 0.923880 0.382683 0.000000
vn 0.382684 0.923879 0.000000
vn -0.382684 0.923879 0.000000
vn -0.382683 -0.923880 0.000000
vn 0.382683 -0.923880 0.000000
vn 0.382684 0.923879 0.000000
vn 0.923880 -0.382683 0.000000
vn 0.923880 0.382683 0.000000
vn 0.000000 0.923879 -0.382684
vn 0.000000 0.382683 -0.923880
vn 0.000000 -0.382683 -0.923880
vn 0.000000 -0.923880 -0.382683
vn 0.000000 -0.923880 0.382683
vn 0.000000 -0.382683 0.923880
vn 0.000000 0.382683 0.923880
vn 0.000000 0.923879 0.382684
vn 0.000000 0.923879 -0.382684
vn 0.000000 0.382683 -0.923880
vn 0.000000 -0.382683 -0.923880
vn 0.000000 -0.923880 -0.382683
vn 0.000000 -0.923880 0.382683
vn 0.000000 -0.382683 0.923880
vn 0.000000 0.382683 0.923880
vn 0.000000 0.923879 0.382684
# num_vertex_normals: 34

vt 0.880570 0.864370
vt 0.880570 1.000000
vt 0.880570 1.000000
vt 0.880570 0.864370
vt 0.119430 0.864370
vt 0.119430 1.000000
vt 0.119430 1.000000
vt 0.119430 0.864370
vt 0.657630 1.000000
vt 0.657630 0.611200
vt 0.880570 0.864370
vt 0.880570 1.000000
vt 0.342370 0.611200
vt 0.342370 1.000000
vt 0.119430 1.000000
vt 0.119430 0.864370
vt 0.342370 0.611200
vt 0.657630 0.611200
vt 0.657630 1.000000
vt 0.342370 1.000000
vt 0.119430 1.000000
vt 0.342370 1.000000
vt 0.342370 0.611200
vt 0.119430 0.864370
vt 0.657630 1.000000
vt 0.657630 0.611200
vt 0.342370 0.611200
vt 0.342370 1.000000
vt 0.880570 1.000000
vt 0.880570 0.864370
vt 0.657630 0.611200
vt 0.657630 1.000000
vt 0.000000 0.864370
vt 0.000000 0.611200
vt 1.000000 0.611200
vt 1.000000 0.864370
vt 0.000000 0.864370
vt 0.000000 0.864370
vt 1.000000 0.864370
vt 1.000000 0.864370
vt 0.000000 0.611200
vt 0.000000 0.864370
vt 1.000000 0.864370
vt 1.000000 0.611200
vt 0.000000 0.253180
vt 0.000000 0.611200
vt 1.000000 0.611200
vt 1.000000 0.253180
vt 0.000000 0.000000
vt 0.000000 0.253180
vt 1.000000 0.253180
vt 1.000000 0.000000
vt 0.000000 0.000000
vt 0.000000 0.000000
vt 1.000000 0.000000
vt 1.000000 0.000000
vt 0.000000 0.253180
vt 0.000000 0.000000
vt 1.000000 0.000000
vt 1.000000 0.253180
vt 0.000000 0.611200
vt 0.000000 0.253180
vt 1.000000 0.253180
vt 1.000000 0.611200
# num_uvs: 64

g mesh01
usemtl wall01
f 17/1/17 10/2/10 11/3/11 18/4/18 
f 3/5/3 6/6/6 7/7/7 4/8/4 
f 12/9/12 16/10/16 18/11/18 11/12/11 
f 13/13/13 5/14/5 6/15/6 3/16/3 
f 13/17/13 16/18/16 12/19/12 5/20/5 
f 7/21/7 8/22/8 14/23/14 4/24/4 
f 9/25/9 15/26/15 14/27/14 8/28/8 
f 10/29/10 17/30/17 15/31/15 9/32/9 
f 20/33/20 19/34/19 27/35/27 28/36/28 
f 21/37/21 20/38/20 28/39/28 29/40/29 
f 22/41/22 21/42/21 29/43/29 30/44/30 
f 23/45/23 22/46/22 30/47/30 31/48/31 
f 24/49/24 23/50/23 31/51/31 32/52/32 
f 25/53/25 24/54/24 32/55/32 33/56/33 
f 26/57/26 25/58/25 33/59/33 34/60/34 
f 19/61/19 26/62/26 34/63/34 27/64/27 
# num_faces: 16

