# Wavefront OBJ file generated by LithUnwrap
# num_vertices: 48
# num_vertex_normals: 48
# num_uvs: 160
# num_faces: 40
# num_groups: 1
mtlib wallIndustrial.mtl
v 0.500000 1.157630 -0.380570
v 0.500000 1.380570 -0.157630
v 0.500000 1.380570 0.157630
v 0.500000 1.157630 0.380570
v 0.500000 0.842370 0.380570
v 0.500000 0.619430 0.157630
v 0.500000 0.619430 -0.157630
v 0.500000 0.842370 -0.380570
v 0.337790 1.157630 -0.380570
v 0.285160 1.380570 -0.157630
v 0.285160 1.380570 0.157630
v 0.337790 1.157630 0.380570
v 0.412210 0.842370 0.380570
v 0.464840 0.619430 0.157630
v 0.464840 0.619430 -0.157630
v 0.412210 0.842370 -0.380570
v 0.031620 1.004550 -0.380570
v -0.100430 1.187770 -0.157630
v -0.100430 1.187770 0.157630
v 0.031620 1.004550 0.380570
v 0.218380 0.745450 0.380570
v 0.350430 0.562230 0.157630
v 0.350430 0.562230 -0.157630
v 0.218380 0.745450 -0.380570
v -0.129550 0.843380 -0.380570
v -0.312770 0.975430 -0.157630
v -0.312770 0.975430 0.157630
v -0.129550 0.843380 0.380570
v 0.129550 0.656620 0.380570
v 0.312770 0.524570 0.157630
v 0.312770 0.524570 -0.157630
v 0.129550 0.656620 -0.380570
v -0.282630 0.537210 -0.380570
v -0.505570 0.589840 -0.157630
v -0.505570 0.589840 0.157630
v -0.282630 0.537210 0.380570
v 0.032630 0.462790 0.380570
v 0.255570 0.410160 0.157630
v 0.255570 0.410160 -0.157630
v 0.032630 0.462790 -0.380570
v -0.282630 0.000000 -0.380570
v -0.505570 0.000000 -0.157630
v -0.505570 0.000000 0.157630
v -0.282630 0.000000 0.380570
v 0.032630 0.000000 0.380570
v 0.255570 0.000000 0.157630
v 0.255570 0.000000 -0.157630
v 0.032630 0.000000 -0.380570
# num_vertices: 48

vn 0.000000 0.382683 -0.923880
vn 0.000000 0.923879 -0.382684
vn 0.000000 0.923879 0.382684
vn 0.000000 0.382683 0.923880
vn 0.000000 -0.382683 0.923880
vn 0.000000 -0.923880 0.382683
vn 0.000000 -0.923880 -0.382683
vn 0.000000 -0.382683 -0.923880
vn -0.085905 0.363891 -0.927472
vn -0.211408 0.895517 -0.391608
vn -0.211403 0.895518 0.391608
vn -0.085901 0.363893 0.927471
vn 0.085897 -0.363894 0.927471
vn 0.211387 -0.895522 0.391607
vn 0.211398 -0.895520 -0.391606
vn 0.085907 -0.363891 -0.927472
vn -0.221291 0.307021 -0.925618
vn -0.539169 0.748048 -0.386938
vn -0.539165 0.748050 0.386939
vn -0.221287 0.307022 0.925618
vn 0.221283 -0.307024 0.925619
vn 0.539152 -0.748059 0.386941
vn 0.539161 -0.748054 -0.386939
vn 0.221293 -0.307020 -0.925618
vn -0.307024 0.221293 -0.925616
vn -0.748049 0.539170 -0.386934
vn -0.748052 0.539166 0.386934
vn -0.307027 0.221289 0.925616
vn 0.307029 -0.221286 0.925616
vn 0.748062 -0.539153 0.386935
vn 0.748055 -0.539161 -0.386935
vn 0.307023 -0.221295 -0.925616
vn -0.363895 0.085907 -0.927470
vn -0.895518 0.211409 -0.391603
vn -0.895520 0.211405 0.391603
vn -0.363897 0.085903 0.927469
vn 0.363900 -0.085899 0.927469
vn 0.895524 -0.211389 0.391601
vn 0.895521 -0.211399 -0.391603
vn 0.363894 -0.085909 -0.927470
vn -0.382683 0.000000 -0.923880
vn -0.923880 0.000000 -0.382683
vn -0.923880 0.000000 0.382683
vn -0.382683 0.000000 0.923880
vn 0.382683 0.000000 0.923880
vn 0.923880 0.000000 0.382683
vn 0.923880 0.000000 -0.382683
vn 0.382683 0.000000 -0.923880
# num_vertex_normals: 48

vt 1.000000 0.707100
vt 1.000000 1.000000
vt 0.838690 1.000000
vt 0.786350 0.707100
vt 1.000000 0.292900
vt 1.000000 0.707100
vt 0.786350 0.707100
vt 0.786350 0.292900
vt 1.000000 0.000000
vt 1.000000 0.292900
vt 0.786350 0.292900
vt 0.838690 0.000000
vt 1.000000 0.000000
vt 1.000000 0.000000
vt 0.838690 0.000000
vt 0.912700 0.000000
vt 1.000000 0.292900
vt 1.000000 0.000000
vt 0.912700 0.000000
vt 0.965030 0.292900
vt 1.000000 0.707100
vt 1.000000 0.292900
vt 0.965030 0.292900
vt 0.965030 0.707100
vt 1.000000 1.000000
vt 1.000000 0.707100
vt 0.965030 0.707100
vt 0.912700 1.000000
vt 1.000000 1.000000
vt 1.000000 1.000000
vt 0.912700 1.000000
vt 0.838690 1.000000
vt 0.786350 0.707100
vt 0.838690 1.000000
vt 0.534210 1.000000
vt 0.402900 0.707100
vt 0.786350 0.292900
vt 0.786350 0.707100
vt 0.402900 0.707100
vt 0.402900 0.292900
vt 0.838690 0.000000
vt 0.786350 0.292900
vt 0.402900 0.292900
vt 0.534210 0.000000
vt 0.912700 0.000000
vt 0.838690 0.000000
vt 0.534210 0.000000
vt 0.719940 0.000000
vt 0.965030 0.292900
vt 0.912700 0.000000
vt 0.719940 0.000000
vt 0.851260 0.292900
vt 0.965030 0.707100
vt 0.965030 0.292900
vt 0.851260 0.292900
vt 0.851260 0.707100
vt 0.912700 1.000000
vt 0.965030 0.707100
vt 0.851260 0.707100
vt 0.719940 1.000000
vt 0.838690 1.000000
vt 0.912700 1.000000
vt 0.719940 1.000000
vt 0.534210 1.000000
vt 0.402900 0.707100
vt 0.534210 1.000000
vt 0.373940 1.000000
vt 0.191730 0.707100
vt 0.402900 0.292900
vt 0.402900 0.707100
vt 0.191730 0.707100
vt 0.191730 0.292900
vt 0.534210 0.000000
vt 0.402900 0.292900
vt 0.191730 0.292900
vt 0.373940 0.000000
vt 0.719940 0.000000
vt 0.534210 0.000000
vt 0.373940 0.000000
vt 0.631600 0.000000
vt 0.851260 0.292900
vt 0.719940 0.000000
vt 0.631600 0.000000
vt 0.813810 0.292900
vt 0.851260 0.707100
vt 0.851260 0.292900
vt 0.813810 0.292900
vt 0.813810 0.707100
vt 0.719940 1.000000
vt 0.851260 0.707100
vt 0.813810 0.707100
vt 0.631600 1.000000
vt 0.534210 1.000000
vt 0.719940 1.000000
vt 0.631600 1.000000
vt 0.373940 1.000000
vt 0.191730 0.707100
vt 0.373940 1.000000
vt 0.221710 1.000000
vt 0.000000 0.707100
vt 0.191730 0.292900
vt 0.191730 0.707100
vt 0.000000 0.707100
vt 0.000000 0.292900
vt 0.373940 0.000000
vt 0.191730 0.292900
vt 0.000000 0.292900
vt 0.221710 0.000000
vt 0.631600 0.000000
vt 0.373940 0.000000
vt 0.221710 0.000000
vt 0.535220 0.000000
vt 0.813810 0.292900
vt 0.631600 0.000000
vt 0.535220 0.000000
vt 0.756920 0.292900
vt 0.813810 0.707100
vt 0.813810 0.292900
vt 0.756920 0.292900
vt 0.756920 0.707100
vt 0.631600 1.000000
vt 0.813810 0.707100
vt 0.756920 0.707100
vt 0.535220 1.000000
vt 0.373940 1.000000
vt 0.631600 1.000000
vt 0.535220 1.000000
vt 0.221710 1.000000
vt 0.000000 0.707100
vt 0.221710 1.000000
vt 0.221710 1.000000
vt 0.000000 0.707100
vt 0.000000 0.292900
vt 0.000000 0.707100
vt 0.000000 0.707100
vt 0.000000 0.292900
vt 0.221710 0.000000
vt 0.000000 0.292900
vt 0.000000 0.292900
vt 0.221710 0.000000
vt 0.535220 0.000000
vt 0.221710 0.000000
vt 0.221710 0.000000
vt 0.535220 0.000000
vt 0.756920 0.292900
vt 0.535220 0.000000
vt 0.535220 0.000000
vt 0.756920 0.292900
vt 0.756920 0.707100
vt 0.756920 0.292900
vt 0.756920 0.292900
vt 0.756920 0.707100
vt 0.535220 1.000000
vt 0.756920 0.707100
vt 0.756920 0.707100
vt 0.535220 1.000000
vt 0.221710 1.000000
vt 0.535220 1.000000
vt 0.535220 1.000000
vt 0.221710 1.000000
# num_uvs: 160

g mesh01
usemtl wall01
f 2/1/2 1/2/1 9/3/9 10/4/10 
f 3/5/3 2/6/2 10/7/10 11/8/11 
f 4/9/4 3/10/3 11/11/11 12/12/12 
f 5/13/5 4/14/4 12/15/12 13/16/13 
f 6/17/6 5/18/5 13/19/13 14/20/14 
f 7/21/7 6/22/6 14/23/14 15/24/15 
f 8/25/8 7/26/7 15/27/15 16/28/16 
f 1/29/1 8/30/8 16/31/16 9/32/9 
f 10/33/10 9/34/9 17/35/17 18/36/18 
f 11/37/11 10/38/10 18/39/18 19/40/19 
f 12/41/12 11/42/11 19/43/19 20/44/20 
f 13/45/13 12/46/12 20/47/20 21/48/21 
f 14/49/14 13/50/13 21/51/21 22/52/22 
f 15/53/15 14/54/14 22/55/22 23/56/23 
f 16/57/16 15/58/15 23/59/23 24/60/24 
f 9/61/9 16/62/16 24/63/24 17/64/17 
f 18/65/18 17/66/17 25/67/25 26/68/26 
f 19/69/19 18/70/18 26/71/26 27/72/27 
f 20/73/20 19/74/19 27/75/27 28/76/28 
f 21/77/21 20/78/20 28/79/28 29/80/29 
f 22/81/22 21/82/21 29/83/29 30/84/30 
f 23/85/23 22/86/22 30/87/30 31/88/31 
f 24/89/24 23/90/23 31/91/31 32/92/32 
f 17/93/17 24/94/24 32/95/32 25/96/25 
f 26/97/26 25/98/25 33/99/33 34/100/34 
f 27/101/27 26/102/26 34/103/34 35/104/35 
f 28/105/28 27/106/27 35/107/35 36/108/36 
f 29/109/29 28/110/28 36/111/36 37/112/37 
f 30/113/30 29/114/29 37/115/37 38/116/38 
f 31/117/31 30/118/30 38/119/38 39/120/39 
f 32/121/32 31/122/31 39/123/39 40/124/40 
f 25/125/25 32/126/32 40/127/40 33/128/33 
f 34/129/34 33/130/33 41/131/41 42/132/42 
f 35/133/35 34/134/34 42/135/42 43/136/43 
f 36/137/36 35/138/35 43/139/43 44/140/44 
f 37/141/37 36/142/36 44/143/44 45/144/45 
f 38/145/38 37/146/37 45/147/45 46/148/46 
f 39/149/39 38/150/38 46/151/46 47/152/47 
f 40/153/40 39/154/39 47/155/47 48/156/48 
f 33/157/33 40/158/40 48/159/48 41/160/41 
# num_faces: 40

