# Wavefront OBJ file generated by LithUnwrap
# num_vertices: 48
# num_vertex_normals: 48
# num_uvs: 160
# num_faces: 40
# num_groups: 1
mtlib wallIndustrial.mtl
v -0.157630 0.619430 -0.500000
v -0.380570 0.842370 -0.500000
v -0.380570 1.157630 -0.500000
v -0.157630 1.380570 -0.500000
v 0.157630 1.380570 -0.500000
v 0.380570 1.157630 -0.500000
v 0.380570 0.842370 -0.500000
v 0.157630 0.619430 -0.500000
v -0.157630 0.619430 -0.430590
v -0.380570 0.842370 -0.403150
v -0.380570 1.157630 -0.403150
v -0.157630 1.380570 -0.430590
v 0.157630 1.380570 -0.469410
v 0.380570 1.157630 -0.496850
v 0.380570 0.842370 -0.496850
v 0.157630 0.619430 -0.469410
v -0.092330 0.619430 -0.169410
v -0.293640 0.842370 -0.055430
v -0.293640 1.157630 -0.055430
v -0.092330 1.380570 -0.169410
v 0.192330 1.380570 -0.330590
v 0.393640 1.157630 -0.444570
v 0.393640 0.842370 -0.444570
v 0.192330 0.619430 -0.330590
v 0.169410 0.619430 0.092330
v 0.055430 0.842370 0.293640
v 0.055430 1.157630 0.293640
v 0.169410 1.380570 0.092330
v 0.330590 1.380570 -0.192330
v 0.444570 1.157630 -0.393640
v 0.444570 0.842370 -0.393640
v 0.330590 0.619430 -0.192330
v 0.430590 0.619430 0.157630
v 0.403150 0.842370 0.380570
v 0.403150 1.157630 0.380570
v 0.430590 1.380570 0.157630
v 0.469410 1.380570 -0.157630
v 0.496850 1.157630 -0.380570
v 0.496850 0.842370 -0.380570
v 0.469410 0.619430 -0.157630
v 0.500000 0.619430 0.157630
v 0.500000 0.842370 0.380570
v 0.500000 1.157630 0.380570
v 0.500000 1.380570 0.157630
v 0.500000 1.380570 -0.157630
v 0.500000 1.157630 -0.380570
v 0.500000 0.842370 -0.380570
v 0.500000 0.619430 -0.157630
# num_vertices: 48

vn -0.382683 -0.923880 0.000000
vn -0.923880 -0.382683 0.000000
vn -0.923880 0.382683 0.000000
vn -0.382684 0.923880 0.000000
vn 0.382684 0.923879 0.000000
vn 0.923880 0.382683 0.000000
vn 0.923880 -0.382683 0.000000
vn 0.382683 -0.923880 0.000000
vn -0.377384 -0.924891 0.046458
vn -0.915942 -0.385145 0.112758
vn -0.915941 0.385144 0.112761
vn -0.377383 0.924891 0.046462
vn 0.377384 0.924891 -0.046458
vn 0.915942 0.385144 -0.112758
vn 0.915942 -0.385145 -0.112751
vn 0.377385 -0.924891 -0.046452
vn -0.322615 -0.928738 0.182661
vn -0.799481 -0.394881 0.452658
vn -0.799480 0.394880 0.452661
vn -0.322614 0.928738 0.182664
vn 0.322615 0.928738 -0.182661
vn 0.799481 0.394881 -0.452658
vn 0.799484 -0.394882 -0.452652
vn 0.322616 -0.928739 -0.182654
vn -0.182660 -0.928739 0.322612
vn -0.452658 -0.394884 0.799480
vn -0.452661 0.394884 0.799478
vn -0.182663 0.928739 0.322611
vn 0.182660 0.928739 -0.322612
vn 0.452658 0.394884 -0.799480
vn 0.452652 -0.394883 -0.799483
vn 0.182654 -0.928740 -0.322615
vn -0.046458 -0.924892 0.377381
vn -0.112757 -0.385147 0.915941
vn -0.112761 0.385148 0.915940
vn -0.046461 0.924892 0.377380
vn 0.046458 0.924892 -0.377381
vn 0.112757 0.385147 -0.915941
vn 0.112751 -0.385146 -0.915942
vn 0.046452 -0.924891 -0.377384
vn 0.000000 -0.923880 0.382683
vn 0.000000 -0.382683 0.923880
vn 0.000000 0.382683 0.923880
vn 0.000000 0.923880 0.382684
vn 0.000000 0.923879 -0.382684
vn 0.000000 0.382683 -0.923880
vn 0.000000 -0.382683 -0.923880
vn 0.000000 -0.923880 -0.382683
# num_vertex_normals: 48

vt 0.000000 1.000000
vt 0.253180 1.000000
vt 0.253180 0.921180
vt 0.000000 0.890010
vt 0.000000 1.000000
vt 0.000000 1.000000
vt 0.000000 0.890010
vt 0.000000 0.890010
vt 0.253180 1.000000
vt 0.000000 1.000000
vt 0.000000 0.890010
vt 0.253180 0.921180
vt 0.611200 1.000000
vt 0.253180 1.000000
vt 0.253180 0.921180
vt 0.611190 0.965260
vt 0.864370 1.000000
vt 0.611200 1.000000
vt 0.611190 0.965260
vt 0.864370 0.996420
vt 0.864370 1.000000
vt 0.864370 1.000000
vt 0.864370 0.996420
vt 0.864370 0.996420
vt 0.611200 1.000000
vt 0.864370 1.000000
vt 0.864370 0.996420
vt 0.611190 0.965260
vt 0.253180 1.000000
vt 0.611200 1.000000
vt 0.611190 0.965260
vt 0.253180 0.921180
vt 0.000000 0.890010
vt 0.253180 0.921180
vt 0.327330 0.624570
vt 0.098720 0.495140
vt 0.000000 0.890010
vt 0.000000 0.890010
vt 0.098720 0.495140
vt 0.098720 0.495140
vt 0.253180 0.921180
vt 0.000000 0.890010
vt 0.098720 0.495140
vt 0.327330 0.624570
vt 0.611190 0.965260
vt 0.253180 0.921180
vt 0.327330 0.624570
vt 0.650610 0.807610
vt 0.864370 0.996420
vt 0.611190 0.965260
vt 0.650610 0.807610
vt 0.879220 0.937050
vt 0.864370 0.996420
vt 0.864370 0.996420
vt 0.879220 0.937050
vt 0.879220 0.937050
vt 0.611190 0.965260
vt 0.864370 0.996420
vt 0.879220 0.937050
vt 0.650610 0.807610
vt 0.253180 0.921180
vt 0.611190 0.965260
vt 0.650610 0.807610
vt 0.327330 0.624570
vt 0.098720 0.495140
vt 0.327330 0.624570
vt 0.624570 0.327330
vt 0.495140 0.098720
vt 0.098720 0.495140
vt 0.098720 0.495140
vt 0.495140 0.098720
vt 0.495140 0.098720
vt 0.327330 0.624570
vt 0.098720 0.495140
vt 0.495140 0.098720
vt 0.624570 0.327330
vt 0.650610 0.807610
vt 0.327330 0.624570
vt 0.624570 0.327330
vt 0.807610 0.650610
vt 0.879220 0.937050
vt 0.650610 0.807610
vt 0.807610 0.650610
vt 0.937050 0.879220
vt 0.879220 0.937050
vt 0.879220 0.937050
vt 0.937050 0.879220
vt 0.937050 0.879220
vt 0.650610 0.807610
vt 0.879220 0.937050
vt 0.937050 0.879220
vt 0.807610 0.650610
vt 0.327330 0.624570
vt 0.650610 0.807610
vt 0.807610 0.650610
vt 0.624570 0.327330
vt 0.495140 0.098720
vt 0.624570 0.327330
vt 0.921180 0.253180
vt 0.890010 0.000000
vt 0.495140 0.098720
vt 0.495140 0.098720
vt 0.890010 0.000000
vt 0.890010 0.000000
vt 0.624570 0.327330
vt 0.495140 0.098720
vt 0.890010 0.000000
vt 0.921180 0.253180
vt 0.807610 0.650610
vt 0.624570 0.327330
vt 0.921180 0.253180
vt 0.965260 0.611190
vt 0.937050 0.879220
vt 0.807610 0.650610
vt 0.965260 0.611190
vt 0.996420 0.864370
vt 0.937050 0.879220
vt 0.937050 0.879220
vt 0.996420 0.864370
vt 0.996420 0.864370
vt 0.807610 0.650610
vt 0.937050 0.879220
vt 0.996420 0.864370
vt 0.965260 0.611190
vt 0.624570 0.327330
vt 0.807610 0.650610
vt 0.965260 0.611190
vt 0.921180 0.253180
vt 0.890010 0.000000
vt 0.921180 0.253180
vt 1.000000 0.253180
vt 1.000000 0.000000
vt 0.890010 0.000000
vt 0.890010 0.000000
vt 1.000000 0.000000
vt 1.000000 0.000000
vt 0.921180 0.253180
vt 0.890010 0.000000
vt 1.000000 0.000000
vt 1.000000 0.253180
vt 0.965260 0.611190
vt 0.921180 0.253180
vt 1.000000 0.253180
vt 1.000000 0.611190
vt 0.996420 0.864370
vt 0.965260 0.611190
vt 1.000000 0.611190
vt 1.000000 0.864370
vt 0.996420 0.864370
vt 0.996420 0.864370
vt 1.000000 0.864370
vt 1.000000 0.864370
vt 0.965260 0.611190
vt 0.996420 0.864370
vt 1.000000 0.864370
vt 1.000000 0.611190
vt 0.921180 0.253180
vt 0.965260 0.611190
vt 1.000000 0.611190
vt 1.000000 0.253180
# num_uvs: 160

g mesh01
usemtl wall01
f 2/1/2 1/2/1 9/3/9 10/4/10 
f 3/5/3 2/6/2 10/7/10 11/8/11 
f 4/9/4 3/10/3 11/11/11 12/12/12 
f 5/13/5 4/14/4 12/15/12 13/16/13 
f 6/17/6 5/18/5 13/19/13 14/20/14 
f 7/21/7 6/22/6 14/23/14 15/24/15 
f 8/25/8 7/26/7 15/27/15 16/28/16 
f 1/29/1 8/30/8 16/31/16 9/32/9 
f 10/33/10 9/34/9 17/35/17 18/36/18 
f 11/37/11 10/38/10 18/39/18 19/40/19 
f 12/41/12 11/42/11 19/43/19 20/44/20 
f 13/45/13 12/46/12 20/47/20 21/48/21 
f 14/49/14 13/50/13 21/51/21 22/52/22 
f 15/53/15 14/54/14 22/55/22 23/56/23 
f 16/57/16 15/58/15 23/59/23 24/60/24 
f 9/61/9 16/62/16 24/63/24 17/64/17 
f 18/65/18 17/66/17 25/67/25 26/68/26 
f 19/69/19 18/70/18 26/71/26 27/72/27 
f 20/73/20 19/74/19 27/75/27 28/76/28 
f 21/77/21 20/78/20 28/79/28 29/80/29 
f 22/81/22 21/82/21 29/83/29 30/84/30 
f 23/85/23 22/86/22 30/87/30 31/88/31 
f 24/89/24 23/90/23 31/91/31 32/92/32 
f 17/93/17 24/94/24 32/95/32 25/96/25 
f 26/97/26 25/98/25 33/99/33 34/100/34 
f 27/101/27 26/102/26 34/103/34 35/104/35 
f 28/105/28 27/106/27 35/107/35 36/108/36 
f 29/109/29 28/110/28 36/111/36 37/112/37 
f 30/113/30 29/114/29 37/115/37 38/116/38 
f 31/117/31 30/118/30 38/119/38 39/120/39 
f 32/121/32 31/122/31 39/123/39 40/124/40 
f 25/125/25 32/126/32 40/127/40 33/128/33 
f 34/129/34 33/130/33 41/131/41 42/132/42 
f 35/133/35 34/134/34 42/135/42 43/136/43 
f 36/137/36 35/138/35 43/139/43 44/140/44 
f 37/141/37 36/142/36 44/143/44 45/144/45 
f 38/145/38 37/146/37 45/147/45 46/148/46 
f 39/149/39 38/150/38 46/151/46 47/152/47 
f 40/153/40 39/154/39 47/155/47 48/156/48 
f 33/157/33 40/158/40 48/159/48 41/160/41 
# num_faces: 40

