# Created with Anim8or 0.95
# Object "wallStart":
# ComRec:
g mesh01
mtlib wallAsia.mtl
# No. points 50:
v -0.50014 0 -0.35902
v -0.50014 0.28101 -0.35902
v -0.50014 0 -0.35902
v -0.50014 0 0.35902
v -0.50014 0.28101 0.35902
v -0.50014 0 0.35902
v -0.50014 0.98086 -0.23960
v -0.50014 1.26109 -0.23960
v -0.50014 0.98086 -0.23960
v -0.50014 0.98086 0.23960
v -0.50014 1.26109 0.23960
v -0.50014 0.98086 0.23960
v -0.50014 0.70322 -0.21956
v -0.30008 0.70322 -0.21956
v -0.30008 0.98448 -0.21956
v -0.25007 0.98448 -0.21956
v -0.25007 0.70322 -0.21956
v -0.10003 0.70322 -0.21956
v -0.10003 0.98448 -0.21956
v -0.10003 0.98448 -0.21956
v 0.10003 0.98448 -0.21956
v 0.10003 0.70322 -0.21956
v 0.10003 0.56259 -0.21956
v 0.10003 0.28133 -0.21956
v -0.10003 0.28133 -0.21956
v -0.10003 0.56259 -0.21956
v -0.50014 0.56259 -0.21956
v -0.50014 0.70322 0.21956
v -0.30008 0.70322 0.21956
v -0.30008 0.98448 0.21956
v -0.25007 0.98448 0.21956
v -0.25007 0.70322 0.21956
v -0.10003 0.70322 0.21956
v -0.10003 0.98448 0.21956
v -0.10003 0.98448 0.21956
v 0.10003 0.98448 0.21956
v 0.10003 0.70322 0.21956
v 0.10003 0.56259 0.21956
v 0.10003 0.28133 0.21956
v -0.10003 0.28133 0.21956
v -0.10003 0.56259 0.21956
v -0.50014 0.56259 0.21956
v 0.20000 0.28101 -0.35902
v 0.20000 1.26109 -0.23960
v 0.20000 0.98086 -0.23960
v 0.20000 0 -0.35902
v 0.20000 0.98086 0.23960
v 0.20000 1.26109 0.23960
v 0.20000 0 0.35902
v 0.20000 0.28101 0.35902

# No. normals 153:
vn 1 0 0
vn 1 0 0
vn 1 0 0
vn 1 0 0
vn 1 0 0
vn 1 0 0
vn 1 0 0
vn 1 0 0
vn 0 0 1
vn 0 0 1
vn 0 0 1
vn -1 0 0
vn 0 1 0
vn 1 0 0
vn -1 0 0
vn 0 1 0
vn -1 0 0
vn 0 0 -1
vn 0 0 -1
vn 0 -1 0
vn 0 0 -1
vn 1 0 0
vn 0 0 -1
vn 0 0 -1
vn 0 0 1
vn 0 0 1
vn 0 1 0
vn 1 0 0
vn 1 0 0
vn 1 0 0
vn 0 1 0
vn 0 0 -1
vn 0 0 -1
vn 0 1 0
vn 0 0 1
vn 0 0 1
vn 0 1 0
vn 0 0 -1
vn 0 0 -1
vn 0 1 0
vn 0 0 1
vn 0 0 1
vn 0 1 0
vn 1 0 0
vn 0 0 -1
vn 0 1 0
vn 1 0 0
vn 1 0 0
vn 0 0 -1
vn 0 1 0
vn -1 0 0
vn -1 0 0
vn 0 0 -1
vn 0 0 -1
vn 1 0 0
vn 1 0 0
vn 1 0 0
vn 0 0 -1
vn 0 1 0
vn 1 0 0
vn 1 0 0
vn 0 0 -1
vn 0 0 -1
vn 0 1 0
vn -1 0 0
vn 1 0 0
vn 1 0 0
vn 0 0 -1
vn -1 0 0
vn 1 0 0
vn 1 0 0
vn 0 0 -1
vn 1 0 0
vn 0 0 -1
vn 1 0 0
vn 0 0 -1
vn 1 0 0
vn 0 0 -1
vn 1 0 0
vn 1 0 0
vn 0 0 -1
vn -1 0 0
vn 1 0 0
vn 0 -1 0
vn 0 0 -1
vn -1 0 0
vn 0 0 -1
vn 0 -1 0
vn 1 0 0
vn 1 0 0
vn 0 1 0
vn 0 0 1
vn 1 0 0
vn 0 1 0
vn -1 0 0
vn 0 0 1
vn 0 0 1
vn -1 0 0
vn 0 0 1
vn 1 0 0
vn 1 0 0
vn 1 0 0
vn 0 1 0
vn 1 0 0
vn 0 0 1
vn 0 0 1
vn 0 1 0
vn -1 0 0
vn 1 0 0
vn 1 0 0
vn -1 0 0
vn 0 0 1
vn 1 0 0
vn 1 0 0
vn 1 0 0
vn 1 0 0
vn 0 0 1
vn 1 0 0
vn 1 0 0
vn 1 0 0
vn 1 0 0
vn 1 0 0
vn 1 0 0
vn 1 0 0
vn 1 0 0
vn 0 0 1
vn 0 0 1
vn -1 0 0
vn 0 0 1
vn 0 -1 0
vn -1 0 0
vn 0 0 1
vn 0 -1 0
vn 0 0 -1
vn 0 1 0
vn 1 0 0
vn 0 0 -1
vn 1 0 0
vn 0 1 0
vn 0 0 -1
vn 1 0 0
vn 0 0 -1
vn 1 0 0
vn 0 0 1
vn 1 0 0
vn 0 0 1
vn 1 0 0
vn 0 1 0
vn 0 0 1
vn 1 0 0
vn 0 0 1
vn 0 1 0
vn 1 0 0

# No. texture coordinates 103:
vt 0.57147 0.80578
vt 0.57147 0.80578
vt 0.57147 0.19422
vt 0.57147 0.19422
vt 0.85721 0.19422
vt 0.85721 0.19422
vt 0.85721 0.19422
vt 0.85721 0.19422
vt 0 0.19422
vt 0.28574 0.19422
vt 0.35717 0.19422
vt 0 0.80578
vt 0.57147 0.80578
vt 0.35717 0.80578
vt 0.28574 0.80578
vt 0.57147 0.80578
vt 0.57147 0.80578
vt 0.57147 0.19422
vt 0.57147 0.19422
vt 0 0.19422
vt 0 0.80578
vt 1 0.83369
vt 0 0.83369
vt 1 1
vt 0 1
vt 0 0.16631
vt 1 0.16631
vt 0 0
vt 1 0
vt 0.68958 0.55734
vt 0.68958 0.77925
vt 0.31042 0.77925
vt 0.31042 0.55734
vt 0.68958 0.55734
vt 0.68958 0.77925
vt 0.31042 0.77925
vt 0.31042 0.55734
vt 0.68958 0.22447
vt 0.68958 0.44638
vt 0.31042 0.44638
vt 0.31042 0.22447
vt 0.68958 0.77925
vt 0.68958 0.55734
vt 0.31042 0.55734
vt 0.31042 0.77925
vt 0.81000 0.22422
vt 0.81000 0.00250
vt 0.19000 0.00250
vt 0.19000 0.22422
vt 0.70689 0.99750
vt 0.70689 0.77640
vt 0.29311 0.77640
vt 0.29311 0.99750
vt 0.68958 0.77925
vt 0.68958 0.55734
vt 0.68958 0.44638
vt 0.68958 0.22447
vt 0.31042 0.22447
vt 0.31042 0.44638
vt 0.31042 0.55734
vt 0.31042 0.77925
vt 0.71076 0.77364
vt 0.71076 0.23001
vt 0.54217 0.23001
vt 0.54217 0.44746
vt 0.54217 0.55619
vt 0.54217 0.77364
vt 0.37359 0.55619
vt 0.37359 0.77364
vt 0.41573 0.77364
vt 0.41573 0.55619
vt 0.20500 0.55619
vt 0.20500 0.44746
vt 0.20500 0.55619
vt 0.20500 0.44746
vt 0.54217 0.44746
vt 0.54217 0.55619
vt 0.37359 0.55619
vt 0.41573 0.55619
vt 0.41573 0.77364
vt 0.37359 0.77364
vt 0.54217 0.23001
vt 0.71076 0.23001
vt 0.71076 0.44746
vt 0.71076 0.55619
vt 0.71076 0.77364
vt 0.54217 0.77364
vt 0.79500 0.98750
vt 0.20500 0.98750
vt 0.20500 0.77084
vt 0.79500 0.77084
vt 0.79500 0.22976
vt 0.20500 0.22976
vt 0.20500 0.01250
vt 0.79500 0.01250
vt 0.79500 0.77084
vt 0.20500 0.77084
vt 0.20500 0.98750
vt 0.79500 0.98750
vt 0.79500 0.01250
vt 0.20500 0.01250
vt 0.20500 0.22976
vt 0.79500 0.22976

# No. faces 31:
usemtl wall01
f 35/3/113 20/2/71 19/1/67
f 34/4/110 35/3/114 19/1/70
f 38/7/121 37/6/119 36/5/115
f 39/8/124 38/7/123 36/5/118
f 32/11/101 29/10/93 28/9/89
f 17/14/56 18/13/61 13/12/44
f 14/15/48 17/14/60 13/12/47
f 25/17/80 26/16/83 18/13/66
f 34/67/112 33/66/106 41/65/129 40/64/127 39/63/126 36/62/117
f 32/71/105 31/70/99 30/69/97 29/68/96
f 42/73/132 41/65/129 33/66/106 28/72/92
f 29/33/95 30/32/98 15/31/52 14/30/51
f 29/10/94 14/15/50 13/12/46 28/9/91
f 33/19/109 32/11/104 28/9/90
f 33/37/108 34/36/111 19/35/69 18/34/65
f 32/11/103 33/19/107 18/13/64 17/14/59
f 40/41/128 41/40/131 26/39/86 25/38/82
f 18/77/63 26/76/85 27/75/87 13/74/45
f 15/81/53 16/80/54 17/79/58 14/78/49
f 41/18/130 42/20/133 27/21/88 26/16/84
f 19/87/68 21/86/72 22/85/74 23/84/76 24/83/78 25/82/81 18/77/62
f 31/45/100 32/44/102 17/43/57 16/42/55
f 45/91/140 7/90/38 8/89/39 44/88/137
f 46/95/142 1/94/32 2/93/33 43/92/134
f 48/99/146 11/98/42 10/97/41 47/96/144
f 50/103/151 5/102/36 4/101/35 49/100/149
f 11/26/43 48/27/148 44/22/139 8/23/40
f 50/49/153 49/48/150 46/47/143 43/46/136
f 48/53/147 47/52/145 45/51/141 44/50/138
f 36/61/116 37/60/120 38/59/122 39/58/125 24/57/79 23/56/77 22/55/75 21/54/73
f 5/28/37 50/29/152 43/24/135 2/25/34


