# Created with Anim8or 0.95
# Object "wallNormal":
# ComRec:
g mesh01
mtlib wallAsia.mtl
# No. points 62:
v -0.50014 0 -0.35902
v 0.50014 0 -0.35902
v 0.50014 0.28101 -0.35902
v -0.50014 0.28101 -0.35902
v -0.50014 0 -0.35902
v -0.50014 0 0.35902
v 0.50014 0 0.35902
v 0.50014 0.28101 0.35902
v -0.50014 0.28101 0.35902
v -0.50014 0 0.35902
v -0.50014 0.98086 -0.23960
v 0.50014 0.98086 -0.23960
v 0.50014 1.26109 -0.23960
v -0.50014 1.26109 -0.23960
v -0.50014 0.98086 -0.23960
v -0.50014 0.98086 0.23960
v 0.50014 0.98086 0.23960
v 0.50014 1.26109 0.23960
v -0.50014 1.26109 0.23960
v -0.50014 0.98086 0.23960
v -0.50014 0.70322 -0.21956
v -0.30008 0.70322 -0.21956
v -0.30008 0.98448 -0.21956
v -0.25007 0.98448 -0.21956
v -0.25007 0.70322 -0.21956
v -0.10003 0.70322 -0.21956
v -0.10003 0.98448 -0.21956
v -0.10003 0.98448 -0.21956
v 0.10003 0.98448 -0.21956
v 0.10003 0.70322 -0.21956
v 0.25007 0.70322 -0.21956
v 0.25007 0.98448 -0.21956
v 0.30008 0.98448 -0.21956
v 0.30008 0.70322 -0.21956
v 0.50014 0.70322 -0.21956
v 0.50014 0.56259 -0.21956
v 0.10003 0.56259 -0.21956
v 0.10003 0.28133 -0.21956
v -0.10003 0.28133 -0.21956
v -0.10003 0.56259 -0.21956
v -0.50014 0.56259 -0.21956
v -0.50014 0.70322 0.21956
v -0.30008 0.70322 0.21956
v -0.30008 0.98448 0.21956
v -0.25007 0.98448 0.21956
v -0.25007 0.70322 0.21956
v -0.10003 0.70322 0.21956
v -0.10003 0.98448 0.21956
v -0.10003 0.98448 0.21956
v 0.10003 0.98448 0.21956
v 0.10003 0.70322 0.21956
v 0.25007 0.70322 0.21956
v 0.25007 0.98448 0.21956
v 0.30008 0.98448 0.21956
v 0.30008 0.70322 0.21956
v 0.50014 0.70322 0.21956
v 0.50014 0.56259 0.21956
v 0.10003 0.56259 0.21956
v 0.10003 0.28133 0.21956
v -0.10003 0.28133 0.21956
v -0.10003 0.56259 0.21956
v -0.50014 0.56259 0.21956

# No. normals 200:
vn 1 0 0
vn 1 0 0
vn 1 0 0
vn 1 0 0
vn 1 0 0
vn 1 0 0
vn 1 0 0
vn 1 0 0
vn 1 0 0
vn 1 0 0
vn 1 0 0
vn 0 0 1
vn 0 0 1
vn 0 0 1
vn 0 0 1
vn 0 0 1
vn 0 0 1
vn 0 0 1
vn -1 0 0
vn 0 1 0
vn 1 0 0
vn -1 0 0
vn -1 0 0
vn 0 1 0
vn 0 1 0
vn 0 1 0
vn -1 0 0
vn 0 1 0
vn 0 1 0
vn 0 0 -1
vn 0 0 -1
vn 0 -1 0
vn 0 0 -1
vn 0 0 -1
vn 0 0 -1
vn 0 0 -1
vn 1 0 0
vn 1 0 0
vn 1 0 0
vn 0 0 -1
vn 1 0 0
vn 0 -1 0
vn 0 0 -1
vn 0 0 -1
vn 0 1 0
vn 0 0 -1
vn 0 1 0
vn 0 0 -1
vn 0 0 1
vn 0 0 1
vn 0 0 1
vn 0 1 0
vn 0 0 1
vn 0 1 0
vn 0 0 -1
vn 0 0 -1
vn 0 1 0
vn 0 0 -1
vn 0 1 0
vn 0 0 -1
vn 0 0 1
vn 0 0 1
vn 0 0 1
vn 0 1 0
vn 0 0 1
vn 0 1 0
vn 1 0 0
vn 0 0 -1
vn 0 1 0
vn 1 0 0
vn 1 0 0
vn 0 0 -1
vn 0 1 0
vn -1 0 0
vn -1 0 0
vn 0 0 -1
vn 0 0 -1
vn 1 0 0
vn 1 0 0
vn 1 0 0
vn 0 0 -1
vn 0 1 0
vn 1 0 0
vn 1 0 0
vn 0 0 -1
vn 0 0 -1
vn 0 1 0
vn -1 0 0
vn 1 0 0
vn 1 0 0
vn 0 0 -1
vn -1 0 0
vn 1 0 0
vn 1 0 0
vn 0 0 -1
vn 1 0 0
vn 1 0 0
vn 1 0 0
vn 0 0 -1
vn 0 1 0
vn 1 0 0
vn 1 0 0
vn 0 0 -1
vn 0 1 0
vn -1 0 0
vn -1 0 0
vn 0 0 -1
vn 0 0 -1
vn 1 0 0
vn 1 0 0
vn 1 0 0
vn 0 0 -1
vn 0 1 0
vn 1 0 0
vn 1 0 0
vn 0 0 -1
vn 0 1 0
vn 0 0 -1
vn 0 -1 0
vn 0 0 -1
vn 0 -1 0
vn 1 0 0
vn 0 0 -1
vn 1 0 0
vn 1 0 0
vn 0 0 -1
vn -1 0 0
vn 1 0 0
vn 0 -1 0
vn 0 0 -1
vn -1 0 0
vn 0 0 -1
vn 0 -1 0
vn 1 0 0
vn 1 0 0
vn 0 1 0
vn 0 0 1
vn 1 0 0
vn 0 1 0
vn -1 0 0
vn 0 0 1
vn 0 0 1
vn -1 0 0
vn 0 0 1
vn 1 0 0
vn 1 0 0
vn 1 0 0
vn 0 1 0
vn 1 0 0
vn 0 0 1
vn 0 0 1
vn 0 1 0
vn -1 0 0
vn 1 0 0
vn 1 0 0
vn -1 0 0
vn 0 0 1
vn 1 0 0
vn 1 0 0
vn 1 0 0
vn 1 0 0
vn 0 0 1
vn 1 0 0
vn 1 0 0
vn 1 0 0
vn 0 1 0
vn 0 0 1
vn 1 0 0
vn 1 0 0
vn 0 1 0
vn -1 0 0
vn 0 0 1
vn 0 0 1
vn -1 0 0
vn 0 0 1
vn 1 0 0
vn 1 0 0
vn 1 0 0
vn 0 1 0
vn 0 0 1
vn 0 0 1
vn 0 0 1
vn 0 1 0
vn 0 0 1
vn 0 -1 0
vn 1 0 0
vn 0 -1 0
vn 1 0 0
vn 0 0 1
vn 1 0 0
vn 1 0 0
vn 1 0 0
vn 0 0 1
vn 0 0 1
vn -1 0 0
vn 0 0 1
vn 0 -1 0
vn -1 0 0
vn 0 0 1
vn 0 -1 0

# No. texture coordinates 140:
vt 0 0.75000
vt 0.20000 0.75000
vt 0.25000 0.75000
vt 0.40000 0.75000
vt 0.40000 0.75000
vt 0.40000 0.75000
vt 0.60000 0.75000
vt 0.75000 0.75000
vt 0.80000 0.75000
vt 1 0.75000
vt 1 0.75000
vt 0.60000 0.75000
vt 0.40000 0.75000
vt 0.40000 0.75000
vt 0 0.75000
vt 0 0.25000
vt 0.20000 0.25000
vt 0.25000 0.25000
vt 0.40000 0.25000
vt 0.40000 0.25000
vt 0.40000 0.25000
vt 0.60000 0.25000
vt 0.60000 0.25000
vt 1 0.25000
vt 0.60000 0.25000
vt 0.60000 0.25000
vt 0.40000 0.25000
vt 0 0.25000
vt 0.80000 0.55763
vt 0.60000 0.55763
vt 0.75000 0.55763
vt 0 0.77779
vt 0 1
vt 1 1
vt 1 0.77779
vt 0.60000 0.78066
vt 0.60000 0.22308
vt 0.40000 0.22308
vt 0.40000 0.44611
vt 0.40000 0.55763
vt 0.40000 0.78066
vt 1 0.55763
vt 1 0.44611
vt 0.60000 0.44611
vt 0.80000 0.78066
vt 0.75000 0.78066
vt 0.20000 0.55763
vt 0.20000 0.78066
vt 0.25000 0.78066
vt 0.25000 0.55763
vt 0 0.55763
vt 0 0.44611
vt 0 0
vt 0 0.22283
vt 1 0.22283
vt 1 0
vt 1 0.55763
vt 1 0.44611
vt 0.60000 0.44611
vt 0.60000 0.55763
vt 0.80000 0.55763
vt 0.75000 0.55763
vt 0.75000 0.78066
vt 0.80000 0.78066
vt 0.60000 0.22308
vt 0.40000 0.22308
vt 0.40000 0.44611
vt 0.40000 0.55763
vt 0.40000 0.78066
vt 0.60000 0.78066
vt 0 0.44611
vt 0 0.55763
vt 0.25000 0.55763
vt 0.20000 0.55763
vt 0.20000 0.78066
vt 0.25000 0.78066
vt 1 0.77779
vt 0 0.77779
vt 0 1
vt 1 1
vt 1 0
vt 0 0
vt 0 0.22283
vt 1 0.22283
vt 0.68652 0.55590
vt 0.68652 0.77224
vt 0.31348 0.77224
vt 0.31348 0.55590
vt 0.68652 0.55590
vt 0.68652 0.77224
vt 0.31348 0.77224
vt 0.31348 0.55590
vt 0.68652 0.23139
vt 0.68652 0.44773
vt 0.31348 0.44773
vt 0.31348 0.23139
vt 0.68652 0.77224
vt 0.68652 0.55590
vt 0.31348 0.55590
vt 0.31348 0.77224
vt 0.68652 0.77224
vt 0.68652 0.55590
vt 0.31348 0.55590
vt 0.31348 0.77224
vt 0.68652 0.44773
vt 0.68652 0.23139
vt 0.31348 0.23139
vt 0.31348 0.44773
vt 0.68652 0.77224
vt 0.68652 0.55590
vt 0.31348 0.55590
vt 0.31348 0.77224
vt 0.10023 0.34122
vt 0.10001 0.69877
vt 0.26399 0.69877
vt 0.26421 0.34122
vt 0.75590 0.69877
vt 0.91988 0.69877
vt 0.92010 0.34122
vt 0.75612 0.34122
vt 0.59193 0.69877
vt 0.71491 0.69877
vt 0.71513 0.34122
vt 0.59215 0.34122
vt 0.30498 0.69877
vt 0.42796 0.69877
vt 0.42818 0.34122
vt 0.30520 0.34122
vt 0.09390 0.80031
vt 0.91378 0.80031
vt 0.91413 0.21567
vt 0.09426 0.21567
vt 0.10797 0.73094
vt 0.92785 0.73094
vt 0.92809 0.34077
vt 0.10821 0.34077
vt 0.30889 0.55619
vt 0.30889 0.77364
vt 0.69111 0.77364
vt 0.69111 0.55619

# No. faces 42:
usemtl wall01
f 49/21/158 28/6/94 27/5/90
f 48/20/155 49/21/159 27/5/93
f 52/31/169 51/30/164 55/29/177
f 58/25/186 51/23/168 50/22/160
f 59/26/191 58/25/190 50/22/163
f 46/18/146 43/17/138 42/16/134
f 25/3/79 26/4/84 21/1/67
f 22/2/71 25/3/83 21/1/70
f 39/13/125 40/14/128 26/4/89
f 34/9/110 35/10/115 30/7/97
f 31/8/102 34/9/114 30/7/101
f 17/35/62 18/34/63 19/33/65 16/32/61
f 48/41/157 47/40/151 61/39/196 60/38/194 59/37/193 50/36/162
f 51/30/167 58/44/189 57/43/184 56/42/182 55/29/181
f 53/46/173 52/31/172 55/29/180 54/45/175
f 46/50/150 45/49/144 44/48/142 43/47/141
f 62/52/199 61/39/196 47/40/151 42/51/137
f 7/56/50 8/55/51 9/54/53 6/53/49
f 43/88/140 44/87/143 23/86/75 22/85/74
f 43/116/139 22/115/73 21/114/69 42/113/136
f 47/19/154 46/18/149 42/16/135
f 47/92/153 48/91/156 27/90/92 26/89/88
f 52/140/171 53/139/174 32/138/106 31/137/105
f 55/120/179 56/119/183 35/118/117 34/117/113
f 51/124/166 52/123/170 31/122/104 30/121/100
f 46/128/148 47/127/152 26/126/87 25/125/82
f 60/96/195 61/95/198 40/94/131 39/93/127
f 9/132/54 8/131/52 3/130/45 4/129/47
f 19/136/66 18/135/64 13/134/57 14/133/59
f 26/60/86 40/59/130 41/58/132 21/57/68
f 23/64/76 24/63/77 25/62/81 22/61/72
f 61/27/197 62/28/200 41/15/133 40/14/129
f 27/70/91 29/69/95 30/68/99 37/67/120 38/66/123 39/65/126 26/60/85
f 35/72/116 36/71/118 37/67/120 30/68/99
f 32/76/107 33/75/108 34/74/112 31/73/103
f 14/80/60 13/79/58 12/78/56 11/77/55
f 50/100/161 51/99/165 30/98/98 29/97/96
f 54/104/176 55/103/178 34/102/111 33/101/109
f 58/108/188 59/107/192 38/106/124 37/105/122
f 4/84/48 3/83/46 2/82/44 1/81/43
f 45/112/145 46/111/147 25/110/80 24/109/78
f 57/24/185 58/25/187 37/12/121 36/11/119


