# Created with Anim8or 0.95
# Object "wallSingle":
# ComRec:
g mesh01
mtlib wallAsia.mtl
# No. points 60:
v -0.38449 0 -0.41276
v 0.39762 0 -0.41276
v 0.39762 0.28126 -0.41276
v -0.38449 0.28126 -0.41276
v -0.38449 0 -0.41276
v -0.38449 0 0.41276
v 0.39762 0 0.41276
v 0.39762 0.28126 0.41276
v -0.38449 0.28126 0.41276
v -0.38449 0 0.41276
v -0.38449 0.98442 -0.41276
v 0.39762 0.98442 -0.41276
v 0.39762 1.26569 -0.41276
v -0.38449 1.26569 -0.41276
v -0.38449 0.98442 -0.41276
v -0.38449 0.98442 0.41276
v 0.39762 0.98442 0.41276
v 0.39762 1.26569 0.41276
v -0.38449 1.26569 0.41276
v -0.38449 0.98442 0.41276
v 0.39762 0 -0.41276
v 0.39762 0 0.41276
v 0.39762 0.28126 0.41276
v 0.39762 0.28126 -0.41276
v 0.39762 0.98442 -0.41276
v 0.39762 0.98442 0.41276
v 0.39762 1.26569 0.41276
v 0.39762 1.26569 -0.41276
v -0.38449 0.98442 -0.41276
v -0.38449 0.98442 0.41276
v -0.38449 0 -0.41276
v -0.38449 0 0.41276
v -0.38449 0.28126 -0.41276
v -0.38449 0.28126 0.41276
v -0.38449 1.26569 -0.41276
v -0.38449 1.26569 0.41276
v -0.30003 0.98442 -0.21956
v -0.30003 0.98442 -0.21956
v -0.30003 0.98442 0.21956
v -0.30003 0.98442 0.21956
v -0.09997 0.98442 -0.21956
v -0.09997 0.28126 -0.21956
v -0.09997 0.28126 0.21956
v -0.09997 0.98442 0.21956
v -0.30003 0.28126 0.21956
v -0.30003 0.28126 -0.21956
v -0.30003 0.98442 -0.21956
v -0.30003 0.98442 0.21956
v 0.09997 0.98442 -0.21956
v 0.09997 0.98442 -0.21956
v 0.09997 0.98442 0.21956
v 0.09997 0.98442 0.21956
v 0.30003 0.98442 -0.21956
v 0.30003 0.28126 -0.21956
v 0.30003 0.28126 0.21956
v 0.30003 0.98442 0.21956
v 0.09997 0.28126 0.21956
v 0.09997 0.28126 -0.21956
v 0.09997 0.98442 -0.21956
v 0.09997 0.98442 0.21956

# No. normals 106:
vn 0 0 -1
vn 1 0 0
vn 0 1 0
vn 0 0 -1
vn 0 1 0
vn 1 0 0
vn -1 0 0
vn 0 0 1
vn 0 0 1
vn -1 0 0
vn 1 0 0
vn 1 0 0
vn 1 0 0
vn 0 0 -1
vn -1 0 0
vn 0 0 1
vn 1 0 0
vn 1 0 0
vn 0 0 -1
vn 1 0 0
vn 0 0 1
vn -1 0 0
vn 0 0 -1
vn 0 0 -1
vn 0 0 -1
vn 0 1 0
vn 0 0 -1
vn 0 1 0
vn 0 0 1
vn 0 0 1
vn 0 1 0
vn 0 0 1
vn 0 1 0
vn 0 0 1
vn 0 0 -1
vn 0 0 -1
vn 0 0 -1
vn 0 1 0
vn 0 0 -1
vn 0 1 0
vn 0 0 1
vn 0 0 1
vn 0 1 0
vn 0 0 1
vn 0 1 0
vn 0 0 1
vn 1 0 0
vn 1 0 0
vn 1 0 0
vn 1 0 0
vn 1 0 0
vn 1 0 0
vn 1 0 0
vn 1 0 0
vn -1 0 0
vn -1 0 0
vn -1 0 0
vn -1 0 0
vn -1 0 0
vn -1 0 0
vn -1 0 0
vn -1 0 0
vn 1 0 0
vn 1 0 0
vn 1 0 0
vn 1 0 0
vn 1 0 0
vn 1 0 0
vn 1 0 0
vn 0 0 -1
vn 1 0 0
vn 0 0 -1
vn 1 0 0
vn 0 0 1
vn 1 0 0
vn 0 0 1
vn -1 0 0
vn 0 0 1
vn 0 0 -1
vn -1 0 0
vn 0 0 -1
vn -1 0 0
vn -1 0 0
vn 0 0 1
vn 1 0 0
vn 1 0 0
vn 1 0 0
vn 1 0 0
vn 1 0 0
vn 1 0 0
vn 0 0 -1
vn 1 0 0
vn 0 0 -1
vn 1 0 0
vn 1 0 0
vn 0 0 1
vn 1 0 0
vn 0 0 1
vn 0 0 1
vn -1 0 0
vn 0 0 -1
vn -1 0 0
vn 0 0 -1
vn -1 0 0
vn 0 0 1
vn -1 0 0

# No. texture coordinates 80:
vt 0.40000 0.75000
vt 0.40000 0.75000
vt 0.40000 0.25000
vt 0.40000 0.25000
vt 0.40000 0.75000
vt 0.40000 0.75000
vt 0.40000 0.25000
vt 0.40000 0.25000
vt 0.83000 0
vt 0.17000 0
vt 0.17000 0.22222
vt 0.83000 0.22222
vt 0.83000 0.77777
vt 0.17000 0.77777
vt 0.17000 1
vt 0.83000 1
vt 0.83000 0.77777
vt 0.83000 1
vt 0.17000 1
vt 0.17000 0.77777
vt 0.83000 0
vt 0.83000 0.22222
vt 0.17000 0.22222
vt 0.17000 0
vt 0.67554 0.77777
vt 0.67554 0.22222
vt 0.32446 0.22222
vt 0.32446 0.77777
vt 0.67554 0.77777
vt 0.32446 0.77777
vt 0.32446 0.22222
vt 0.67554 0.22222
vt 0.67554 0.77777
vt 0.67554 0.22222
vt 0.32446 0.22222
vt 0.32446 0.77777
vt 0.67554 0.77777
vt 0.32446 0.77777
vt 0.32446 0.22222
vt 0.67554 0.22222
vt 0.14250 -0.01000
vt 0.85750 -0.01000
vt 0.85750 0.21666
vt 0.14250 0.21666
vt 0.14250 0.78333
vt 0.85750 0.78333
vt 0.85750 1.01
vt 0.14250 1.01
vt 0.14250 0.78333
vt 0.14250 1.01
vt 0.85750 1.01
vt 0.85750 0.78333
vt 0.14250 -0.01000
vt 0.14250 0.21666
vt 0.85750 0.21666
vt 0.85750 -0.01000
vt 0.21971 0.21666
vt 0.40261 0.21666
vt 0.40261 0.78333
vt 0.21971 0.78333
vt 0.40261 0.78333
vt 0.40261 0.21666
vt 0.21971 0.21666
vt 0.21971 0.78333
vt 0.58539 0.21666
vt 0.76828 0.21666
vt 0.76828 0.78333
vt 0.58539 0.78333
vt 0.76828 0.78333
vt 0.76828 0.21666
vt 0.58539 0.21666
vt 0.58539 0.78333
vt 0.12077 0.87103
vt 0.87923 0.87103
vt 0.87923 0.12898
vt 0.12077 0.12898
vt 0.12077 0.87103
vt 0.87923 0.87103
vt 0.87923 0.12898
vt 0.12077 0.12898

# No. faces 22:
usemtl wall01
f 4/44/27 3/43/25 2/42/24 1/41/23
f 24/12/50 23/11/49 22/10/48 21/9/47
f 9/76/33 8/75/31 3/74/26 4/73/28
f 14/48/39 13/47/37 12/46/36 11/45/35
f 19/80/45 18/79/43 13/78/38 14/77/40
f 28/16/54 27/15/53 26/14/52 25/13/51
f 30/20/56 36/19/62 35/18/61 29/17/55
f 17/52/42 18/51/44 19/50/46 16/49/41
f 7/56/30 8/55/32 9/54/34 6/53/29
f 32/24/58 34/23/60 33/22/59 31/21/57
f 39/3/66 38/2/65 37/1/63
f 40/4/68 39/3/67 37/1/64
f 44/28/75 43/27/73 42/26/71 41/25/69
f 47/60/81 41/59/70 42/58/72 46/57/79
f 46/32/80 45/31/77 48/30/83 47/29/82
f 48/64/84 45/63/78 43/62/74 44/61/76
f 51/7/88 50/6/87 49/5/85
f 52/8/90 51/7/89 49/5/86
f 59/68/103 53/67/91 54/66/93 58/65/101
f 56/36/97 55/35/95 54/34/94 53/33/92
f 60/72/105 57/71/99 55/70/96 56/69/98
f 58/40/102 57/39/100 60/38/106 59/37/104


