# Created with Anim8or 0.95
# Object "wallCurve":
# ComRec:
g mesh01
# No. points 67:
mtlib wallAsia.mtl
v -0.50014 0 -0.35913
v 0.40014 0 -0.35913
v 0.40014 0.28136 -0.35913
v -0.50014 0.28136 -0.35913
v -0.50014 0 -0.35913
v -0.50000 0 0.50000
v 0.40000 0 0.50000
v 0.40000 0.28100 0.50000
v -0.50000 0.28100 0.50000
v -0.50000 0 0.50000
v -0.50014 0.98325 -0.24006
v -0.50014 0.98325 0.24006
v 0.40014 0 -0.35913
v 0.40000 0 0.50000
v 0.40000 0.28100 0.50000
v 0.40014 0.28136 -0.35913
v 0.40000 0.28100 0.50000
v -0.50014 0.70316 0.21956
v -0.50014 0.70316 -0.21956
v -0.50014 0.98325 0.24006
v -0.50014 1.26419 0.24006
v -0.50014 0.56253 0.21956
v -0.50014 1.26419 -0.24006
v -0.50014 0.56253 -0.21956
v -0.50014 0.98325 -0.24006
v -0.30000 0.70316 0.21956
v -0.30000 0.70316 0.21956
v -0.30000 0.70316 0.21956
v -0.30000 0.70316 -0.21956
v -0.30000 0.70316 -0.21956
v -0.30000 0.70316 -0.21956
v -0.30000 1.26419 0.24006
v -0.30000 0.98325 0.24006
v -0.30000 0.56253 0.21956
v -0.30000 1.26419 -0.24006
v -0.30000 0.56253 -0.21956
v -0.30000 0.98325 -0.24006
v 0.21956 0.70316 0.50014
v -0.21956 0.70316 0.50014
v 0.24006 0.98325 0.50014
v 0.24006 1.26419 0.50014
v 0.21956 0.56253 0.50014
v -0.24006 1.26419 0.50014
v -0.21956 0.56253 0.50014
v -0.24006 0.98325 0.50014
v 0.21956 0.70316 0.30000
v 0.21956 0.70316 0.30000
v 0.21956 0.70316 0.30000
v -0.21956 0.70316 0.30000
v -0.21956 0.70316 0.30000
v -0.21956 0.70316 0.30000
v 0.24006 1.26419 0.30000
v 0.24006 0.98325 0.30000
v 0.21956 0.56253 0.30000
v -0.24006 1.26419 0.30000
v -0.21956 0.56253 0.30000
v -0.24006 0.98325 0.30000
v 0.30000 1.4 -0.30000
v 0.30000 1.4 0.30000
v -0.30000 1.4 0.30000
v -0.30000 1.4 -0.30000
v 0.30000 1.4 -0.30000
v 0.30000 0.28100 0.30000
v 0.30000 0.28100 -0.30000
v -0.30000 0.28100 0.30000
v -0.30000 0.28100 -0.30000
v 0.30000 0.28100 -0.30000

# No. normals 146:
vn 0 0 1
vn 1 0 0.00016
vn 0 0 -1
vn 0 1 0.00042
vn 1 0 0
vn -1 0 0.00016
vn 1 0 0
vn 1 0 0
vn 1 0 0
vn 1 0 0
vn 0 0 1
vn 0 0 1
vn 0 1 0
vn 0 1 0
vn 0 0 -1
vn 0 0 -1
vn 1 0 0
vn 1 0 0
vn 1 0 0
vn 1 0 0
vn 1 0 0
vn 1 0 0
vn 0 1 0
vn 0 1 0
vn -1 0 0
vn -1 0 0
vn 0 1 0
vn 1 0 0
vn 0 0 1
vn -1 0 0
vn 0 0 -1
vn 0 0 -1
vn -1 0 0.00016
vn 0 0 -1
vn 0 0 -1
vn 0 1 0.00042
vn 0 0 -1
vn -1 0 0.00016
vn 0 1 0.00042
vn 0 0 1
vn -1 0 0.00016
vn 0 0 1
vn 0 0 1
vn 1 0 0
vn 0 0 1
vn -1 0 0.00016
vn 1 0 0
vn 0 1 0.00042
vn 1 0 0.00016
vn 1 0 0.00016
vn 1 0 0.00016
vn 1 0 0.00016
vn 0 1 0.00042
vn 1 0 0
vn 1 0 0
vn 0 1 0
vn 0 0 1
vn 1 0 0
vn 1 0 0
vn 0 0 -1
vn 0 1 0
vn 1 0 0
vn 0 0 1
vn 0 0 1
vn 0 1 0
vn 0 0 1
vn 0 1 0
vn 0 0 -1
vn 0 0 -1
vn 0 0 -1
vn 1 0 0
vn 0 1 0
vn 1 0 0
vn 1 0 0
vn 1 0 0
vn 0 0 1
vn 1 0 0
vn 0 0 -1
vn 1 0 0
vn 1 0 0
vn 1 0 0
vn 0 1 0
vn 0 0 1
vn 0 1 0
vn 0 0 1
vn 0 0 1
vn 0 1 0
vn 0 0 -1
vn 0 0 -1
vn 0 0 -1
vn 1 0 0
vn 0 1 0
vn 1 0 0
vn 1 0 0
vn 1 0 0
vn -1 0 0
vn 0 1 0
vn 1 0 0
vn 1 0 0
vn 1 0 0
vn 0 1 0
vn 1 0 0
vn 0 1 0
vn -1 0 0
vn -1 0 0
vn -1 0 0
vn 1 0 0
vn 0 1 0
vn 1 0 0
vn 1 0 0
vn 1 0 0
vn 1 0 0
vn 1 0 0
vn -1 0 0
vn 1 0 0
vn 1 0 0
vn 1 0 0
vn 0 1 0
vn 1 0 0
vn 0 1 0
vn 1 0 0
vn 1 0 0
vn 0 1 0
vn -1 0 0
vn -1 0 0
vn -1 0 0
vn 0 1 0
vn 1 0 0
vn 0 1 0
vn 0 0 1
vn 1 0 0
vn 0 1 0
vn -1 0 0
vn 0 0 1
vn 0 1 0
vn 0 0 -1
vn -1 0 0
vn 0 0 -1
vn 1 0 0
vn 0 0 1
vn 1 0 0
vn 0 0 1
vn -1 0 0
vn -1 0 0
vn 0 0 -1
vn 0 0 -1

# No. texture coordinates 107:
vt 0.00016 0.00017
vt 0.999845 0.00017
vt 0.999845 0.00017
vt 0.22231 0.32653
vt 0 0.32653
vt 0.22231 0.32653
vt 0.22231 0.32653
vt 0.22231 0.83757
vt 0 0.83757
vt 0.22231 0.83757
vt 0.22231 0.83757
vt 0.79942 0.23292
vt 0.79942 0
vt 0.79942 0.23292
vt 0.79942 0.23292
vt 0.31166 0.23292
vt 0.31166 0
vt 0.31166 0.23292
vt 0.31166 0.23292
vt 0.82000 0.02250
vt 0.18010 0.02250
vt 0.18010 0.21418
vt 0.82000 0.21443
vt 0.82000 0.02250
vt 0.82000 0.21443
vt 0.18010 0.21418
vt 0.18010 0.02250
vt 0.32907 0.69322
vt 0.18000 0.69322
vt 0.18000 0.88486
vt 0.32907 0.88486
vt 0.32907 0.40623
vt 0.18000 0.40623
vt 0.18000 0.50216
vt 0.32907 0.50216
vt 0.32907 0.50216
vt 0.18000 0.50216
vt 0.18000 0.40623
vt 0.32907 0.40623
vt 0.32907 0.88486
vt 0.18000 0.88486
vt 0.18000 0.69322
vt 0.32907 0.69322
vt 0.32907 0.97750
vt 0.77596 0.97750
vt 0.77596 0.21418
vt 0.32907 0.21418
vt 0.77596 0.97750
vt 0.32907 0.97750
vt 0.32907 0.21418
vt 0.77596 0.21418
vt 0.16510 0.01500
vt 0.16510 0.20969
vt 0.83490 0.20969
vt 0.83490 0.01500
vt 0.16500 0.01500
vt 0.83500 0.01500
vt 0.83500 0.20994
vt 0.16500 0.20994
vt 0.31395 0.69625
vt 0.16500 0.69625
vt 0.16500 0.89090
vt 0.31395 0.89090
vt 0.31395 0.40475
vt 0.16500 0.40475
vt 0.16500 0.50219
vt 0.31395 0.50219
vt 0.31395 0.50219
vt 0.16500 0.50219
vt 0.16500 0.40475
vt 0.31395 0.40475
vt 0.31395 0.89090
vt 0.16500 0.89090
vt 0.16500 0.69625
vt 0.31395 0.69625
vt 0.31395 0.98500
vt 0.76047 0.98500
vt 0.76047 0.20969
vt 0.31395 0.20969
vt 0.76047 0.98500
vt 0.31395 0.98500
vt 0.31395 0.20969
vt 0.76047 0.20969
vt 0.11512 0.11013
vt 0.11500 0.89000
vt 0.88500 0.89000
vt 0.88488 0.11013
vt 0.28618 0.36470
vt 0.11500 0.36470
vt 0.11500 0.76331
vt 0.28618 0.76331
vt 0.28618 0.34609
vt 0.11500 0.34609
vt 0.11500 0.78191
vt 0.28618 0.78191
vt 0.73055 0.29168
vt 0.73055 0.11000
vt 0.35498 0.11000
vt 0.35498 0.29168
vt 0.74809 0.29168
vt 0.74809 0.11000
vt 0.33744 0.11000
vt 0.33744 0.29168
vt 0.79935 0.29168
vt 0.28618 0.29168
vt 0.28618 0.83632
vt 0.79935 0.83632

# No. faces 31:
usemtl wall01
f 7/55/42 8/54/43 9/53/45 6/52/40
f 16/23/52 15/22/51 14/21/50 13/20/49
f 4/59/37 3/58/35 2/57/34 1/56/32
f 17/87/53 3/86/36 4/85/39 9/84/48
f 9/1/47 8/2/44 17/3/54
f 6/27/41 9/26/46 4/25/38 1/24/33
f 26/6/71 18/5/55 27/4/73
f 27/4/74 18/5/58 28/7/75
f 29/10/77 19/9/59 30/8/79
f 30/8/80 19/9/62 31/11/81
f 32/63/83 21/62/64 20/61/63 33/60/85
f 28/67/76 18/66/57 22/65/66 34/64/86
f 31/91/82 19/90/61 18/89/56 26/88/72
f 35/95/87 23/94/67 21/93/65 32/92/84
f 36/71/89 24/70/69 19/69/60 29/68/78
f 37/75/90 25/74/70 23/73/68 35/72/88
f 46/14/107 38/13/91 47/12/109
f 47/12/110 38/13/94 48/15/111
f 49/18/113 39/17/95 50/16/115
f 50/16/116 39/17/98 51/19/117
f 52/31/119 41/30/100 40/29/99 53/28/121
f 48/35/112 38/34/93 42/33/102 54/32/122
f 51/99/118 39/98/97 38/97/92 46/96/108
f 55/103/123 43/102/103 41/101/101 52/100/120
f 56/39/125 44/38/105 39/37/96 49/36/114
f 57/43/126 45/42/106 43/41/104 55/40/124
f 58/107/127 61/106/135 60/105/132 59/104/129
f 63/47/139 64/46/141 58/45/128 59/44/131
f 65/79/142 63/78/140 59/77/130 60/76/134
f 66/51/144 65/50/143 60/49/133 61/48/137
f 67/83/146 66/82/145 61/81/136 62/80/138


